<svg id="Layer_1" data-name="Layer 1" xmlns="http://www.w3.org/2000/svg" viewBox="0 0 595.28 544.57"><defs><style>.cls-1,.cls-2{fill:#0061af;}.cls-2{font-size:42.48px;font-family:Times-Bold, Times;font-weight:700;}.cls-3{letter-spacing:-0.04em;}.cls-4{fill:none;stroke:#0061af;stroke-miterlimit:10;}</style></defs><path class="cls-1" d="M216.59,377.61q0,28.45-12.61,43.79t-35.82,15.33H129.24c-4,0-6.68.32-8.08,1a9.74,9.74,0,0,0-3.87,3.65,12.57,12.57,0,0,0-1.77,7c0,3.24.52,5.44,1.55,6.57H89.65a44.91,44.91,0,0,1-1.11-11.19c0-2.43.12-5,.34-7.66a17.27,17.27,0,0,1,2.32-7.42q5.08-9.26,11.17-12.17a33.25,33.25,0,0,1,14.48-2.92h49.76q13.71,0,19.9-10.7,4.86-8.51,4.87-23.35,0-14.61-3.1-21.41a12.1,12.1,0,0,0-7.3-6.33H175.9v10.95q0,21.9-11.28,32.23t-33.39,10.34q-15.27,0-26.32-7.54-17-11.67-17-38.19,0-13.87,7.52-23.12,6.42-7.77,12.61-7.78V286.14h86.33v23.11H175.9v19.46h9.73q12.6,0,20.12,8.51Q216.58,349.4,216.59,377.61ZM149.36,363.5V351.82H129.24q-7.31,0-11.06,3.65a12.93,12.93,0,0,0-3.76,9.73q0,8,4.64,11.92T131,381q11.27,0,15.48-5.83Q149.36,371,149.36,363.5Zm0-34.79V309.25H134.54v19.46Z"/><path class="cls-1" d="M318.9,341.68c-.07-.55-.17-1.2-.32-2V336.8q0-10.59,5-16.51a16.4,16.4,0,0,1,13.18-5.92q11.85,0,16.35,12.26,2.65,7,2.66,18.28V410.2A43.59,43.59,0,0,1,368,403.45a37.8,37.8,0,0,1,12.31-2.6V349.47q0-26.58-7.76-40.09-10.43-17.85-35.77-17.86-18.6,0-29.23,11.84-12,13.39-12.24,40.66A104.66,104.66,0,0,1,318.9,341.68Z"/><path class="cls-1" d="M405,405.65q-26.6,0-40.09,6.46Q347,420.79,347,441.88q0,15.48,11.84,24.32c7.6,5.66,18.69,7.33,32.87,6.68V453.42c-6.78-.07-11.91-.21-15.94-2.09-4.37-2.05-5.92-6.77-5.92-11.31,0-6.57,3.08-9.93,11.25-12.43,4.7-1.47,11.81-1.53,19.29-1.53h99.47V405.65Z"/><path class="cls-1" d="M315.63,328.2A102.39,102.39,0,0,0,287.87,331a30.15,30.15,0,0,0-13,13.78,49.43,49.43,0,0,0-4.53,21.77v56.69H254.19V314.42H227.65V446.36h69q22.77,0,33.39-12.65Q342,419.6,342,385.54q0-26.76-7.52-41.24Q327.46,330.82,315.63,328.2Zm-1.73,58.31q0,23.85-3.88,30.29t-13.15,6.45v-54.5c0-6,.66-10.46,2-13.38s3.39-4.38,6.19-4.38q4.65,0,6.74,5.48t2.11,23.72Z"/><path class="cls-1" d="M434.86,404.16a73.44,73.44,0,0,0,.33,7.67,48.27,48.27,0,0,0,1.55,7.42c.08.31.19.61.3.92h62.84V406H470.46q-6.4,0-8.18-2.91c-.59-1-.88-.18-.88-3.1h2.43q22.11,0,32.29-12.63,11.26-14.08,11.27-48.07,0-30.1-10.17-44.91-9.29-13.6-26.76-13.6-17,0-26.31,11.4-8.41,10.44-8.41,28.16v56.53H419.6V287.05H393.06V400h41.8Zm27.42-81.56q0-9,2-13.33t6.19-4.37c3.1,0,5.35,1.83,6.75,5.46s2.1,11.52,2.1,23.64v6.31q0,23.74-3.87,30.18t-13.16,6.42Z"/><path class="cls-1" d="M482.23,274.75a15.16,15.16,0,0,0,.33-3.13,13.49,13.49,0,0,0-3.58-9.51,11.35,11.35,0,0,0-8.65-3.88,11.47,11.47,0,0,0-8.78,3.88,13.49,13.49,0,0,0-3.59,9.51,15.17,15.17,0,0,0,.32,3.13Z"/><text class="cls-2" transform="translate(394.47 463.88) scale(0.89 1)"><tspan class="cls-3">.</tspan><tspan x="8.92" y="0">WIKI</tspan></text><path class="cls-1" d="M231.65,107.73a11.94,11.94,0,0,1-3.26-1.61c-1-.72-1.82-1.55-2.81-2.22a15,15,0,0,0-7.17-2.44c-1.49-.15-3-.19-4.5-.27a8.14,8.14,0,0,1,2.07-.85,13.93,13.93,0,0,1,5.19-.07,23,23,0,0,1,6.51,1.62,19,19,0,0,1,8.43,8.09A12.6,12.6,0,0,0,231.65,107.73Z"/><path class="cls-1" d="M209.3,106.3c.1-.21.22-.4.33-.6a18.45,18.45,0,0,1,7.44.06c2.37.59,4.23,2.24,6.22,3.57a20.2,20.2,0,0,0,6.07,2.51A11,11,0,0,1,235.1,115c1.52,1.77,2,4.17,2.54,6.37.19.8,1.42.47,1.23-.33-.64-2.66-1.31-5.36-3.29-7.38a13,13,0,0,0-6.1-3.13,27.85,27.85,0,0,1-3.32-1.06,17.63,17.63,0,0,1-3.27-2c-2.14-1.53-4.19-2.85-6.83-3.23a21.56,21.56,0,0,0-5.56,0,12.89,12.89,0,0,1,1.79-2c4.28.38,8.7,0,12.43,2.52.94.62,1.76,1.38,2.64,2.07a11.57,11.57,0,0,0,3.09,1.72c2.06.78,4.38,1.25,5.61,3.25a.66.66,0,0,0,1.07,0,53.94,53.94,0,0,1,3.32,9.86,4.39,4.39,0,0,0-3.27.92.5.5,0,0,0-.2-.37c-2-1.67-1.81-4.81-4-6.34s-4.83-1-7-2.14a50,50,0,0,1-5.49-3.67,15.47,15.47,0,0,0-5.77-2.79,8.56,8.56,0,0,0-6.35,1.37A17.38,17.38,0,0,1,209.3,106.3Z"/><path class="cls-1" d="M208.06,109.6a.57.57,0,0,0,.86.29,7.42,7.42,0,0,1,6.93-.84,24.13,24.13,0,0,1,5.35,3.23,19.27,19.27,0,0,0,5.39,3.2c2.09.63,5.08.37,6.46,2.38,1.19,1.73,1.32,4,3,5.37a.63.63,0,0,0,.37.14,5.8,5.8,0,0,0-1.13,1.77l0,0a4.35,4.35,0,0,1-2.57-2c-.49-.84-.83-1.77-1.4-2.57-1.29-1.82-3.23-2.43-5.35-2.76a11.11,11.11,0,0,1-3.27-.8,12.61,12.61,0,0,1-2.62-2,9.47,9.47,0,0,0-4.88-2.79,23.57,23.57,0,0,0-7.77.09C207.6,111.33,207.81,110.46,208.06,109.6Z"/><path class="cls-1" d="M207.18,113.52c2.88-.5,6.4-.86,9.19.24,1.76.69,3,2.33,4.48,3.47a7,7,0,0,0,2.77,1.39c1.06.27,2.15.35,3.22.58a5.52,5.52,0,0,1,2.87,1.38,8.22,8.22,0,0,1,1.43,2.24,6.17,6.17,0,0,0,3.79,3.52h.1a4,4,0,0,0,.22,1.87c-1.7.89-3.75-.43-4.87-2s-1.86-3.47-3.46-4.52c-2.13-1.42-5.2-.89-7.19-2.49a29,29,0,0,1-2.18-2.51c-2.51-2.54-6.65-2.15-10.17-1.57l-.5,0c.09-.55.19-1.1.29-1.66Z"/><path class="cls-1" d="M206.6,106.2a8.37,8.37,0,0,0-3.72.62c.87-.85,1.76-1.66,2.69-2.44.75-.63,1.71-1.3,2.64-1a27.55,27.55,0,0,0-1.32,2.87A.66.66,0,0,0,206.6,106.2Z"/><path class="cls-1" d="M200.77,109.11a.57.57,0,0,0,.53-.06,12,12,0,0,1,2.48-1.24,7.23,7.23,0,0,1,2.69-.35c-.27.8-.52,1.61-.72,2.43a12.73,12.73,0,0,0-6.21.89A18.41,18.41,0,0,1,200.77,109.11Z"/><path class="cls-1" d="M205.49,111.12c-.1.48-.21,1-.28,1.46h-.06c-2,.16-4.34.25-6.09,1.44a6.86,6.86,0,0,0-1.69,1.87,13.89,13.89,0,0,1,1-3.13A11.25,11.25,0,0,1,205.49,111.12Z"/><path class="cls-1" d="M198,117.2a11.47,11.47,0,0,1,1.48-1.91c1.45-1.26,3.75-1.31,5.58-1.44,0,.4-.08.79-.1,1.19l-.45.38a7.51,7.51,0,0,0-6.57,6.76,9.48,9.48,0,0,1-.79-4A6.47,6.47,0,0,0,198,117.2Z"/><path class="cls-1" d="M200.65,126.89l-.16.42a5.5,5.5,0,0,1,7,5.24,11.25,11.25,0,0,1-.28,2.24l-.58,2.92a5.23,5.23,0,0,0,0,3,1.83,1.83,0,0,0,2.41,1.1,2.33,2.33,0,0,0-1.6,2.27,2.17,2.17,0,0,0,.25,1.33,1,1,0,0,0,1.19.44,1.54,1.54,0,0,0-.35,1.22,8.55,8.55,0,0,1-3.43-2.14c.08-.15.16-.3.25-.45a9.62,9.62,0,0,1,.69-1,1.36,1.36,0,0,0-.47-1.85c-.07,0-.42-.29-.15-.06a1.72,1.72,0,0,1-.22-.2v0l-.09-.16-.06-.11a7.81,7.81,0,0,1-.22-1.07,6.77,6.77,0,0,0,.72-1.84,17.6,17.6,0,0,1,1.07-4.33,3.64,3.64,0,0,1-4.42-1,9.93,9.93,0,0,0,4.15-.59c-1-1.31-3-1.08-4.61-.71a2.37,2.37,0,0,1,1.87-1.63c-.34-.68-1.35-.34-2.1-.46A1.57,1.57,0,0,1,200.65,126.89Z"/><path class="cls-1" d="M212.54,127.59a6,6,0,0,1,3.31-1.1,15.61,15.61,0,0,1,9.6,2.36c-.19.33-.69.18-1,0a12.33,12.33,0,0,0-7.94-1.14c.05.26.42.28.69.25a5.92,5.92,0,0,1,4.63,1.63l-3.51-.36a.49.49,0,0,0-.24,0c-.24.08-.25.42-.15.66a1.36,1.36,0,0,1,.23.71c-.06.42-.67.53-1,.3a2.85,2.85,0,0,1-.77-1,1.16,1.16,0,0,0-1-.64c-.55.08-.85.79-1.41.83a1,1,0,0,1-.53-.15,2,2,0,0,1-.5-2.84"/><path class="cls-1" d="M213.63,140.48a.9.9,0,0,0,.91-.84,1.65,1.65,0,0,0-.49-1.24,19.63,19.63,0,0,1,4.87,2.43,2.23,2.23,0,0,1-1.78-.5c-.55-.33-1.28-.61-1.79-.23a4.71,4.71,0,0,1-.42.36.66.66,0,0,1-.93-.56"/><path class="cls-1" d="M218.91,143.61c-1.36,0-2.77-.93-4-.36-.67.3-1.22,1-1.94.91-.46-.07-.8-.46-1.23-.64-.91-.39-1.92.25-2.7.86,2.09.92,4.51.27,6.7-.39l2.16-.65"/><path class="cls-1" d="M210.34,151.78a3.94,3.94,0,0,0,2.85,2.82,9.86,9.86,0,0,0,4.19.05,47.85,47.85,0,0,0,6.16-1.31,14.5,14.5,0,0,0,6.67-3.49c1.83-1.92,2.66-4.57,3.32-7.14-.89,2-2.07,4.34-4.25,4.82q1.13-3.48,2.39-6.92c-2.55,1.48-2.6,5.73-5.35,6.79l.35-3.58a12.48,12.48,0,0,1-12,8.43,24.19,24.19,0,0,1-4-.61"/><path class="cls-1" d="M236.66,125.83a3.76,3.76,0,0,1,3-2.77,2.63,2.63,0,0,1,2.86,2.56,4,4,0,0,1-.67,1.71c-.19.31-.47.65-.82.59a.67.67,0,0,1-.48-.63,3.09,3.09,0,0,1,.14-.85,1.43,1.43,0,0,0-.43-1.51c-.59-.39-1.38,0-1.87.55s-1,1.16-1.64,1.28a1.87,1.87,0,0,1,1-1.91"/><path class="cls-1" d="M240.81,134.65c0-.44,0-.88.05-1.32a1.86,1.86,0,0,1,.08-.62,2.1,2.1,0,0,1,.5-.65,6.38,6.38,0,0,0,1.75-4.54l0,.47a4.4,4.4,0,0,1,2.13.16A9.28,9.28,0,0,1,240.81,134.65Z"/><path class="cls-1" d="M245.55,135.11a9.27,9.27,0,0,1-5,3.46c.09-1.11.17-2.21.21-3.32a.31.31,0,0,0,.31,0,10.83,10.83,0,0,0,3.48-3.22,9.49,9.49,0,0,0,1.4-3.62,4.19,4.19,0,0,1,1.14.82,5.17,5.17,0,0,1,1,1.49A17.35,17.35,0,0,1,245.55,135.11Z"/><path class="cls-1" d="M240.2,142.23q.2-1.51.33-3a.27.27,0,0,0,.18,0,9.74,9.74,0,0,0,5.3-3.63,18,18,0,0,0,2.42-3.93,8.53,8.53,0,0,1,.27,1.73,11.36,11.36,0,0,1-.49,3.93A10.44,10.44,0,0,1,240.2,142.23Z"/><path class="cls-1" d="M247.2,139.61a10.54,10.54,0,0,1-.8,1.21,11.27,11.27,0,0,1-6.58,4.13c.11-.69.2-1.37.29-2.06A10.51,10.51,0,0,0,247.2,139.61Z"/><path class="cls-1" d="M248.49,143.19a9.47,9.47,0,0,1-8.16,5.45c.06-.48.13-.95.2-1.42a1,1,0,0,1,.18-.55,1.16,1.16,0,0,1,.56-.29,12.21,12.21,0,0,0,7.51-6.62l.36-.3c.05,0,.09.1.14.14A9.24,9.24,0,0,1,248.49,143.19Z"/><path class="cls-1" d="M241.6,149.18a10,10,0,0,0,8.29-8.76,4.59,4.59,0,0,1,.51,2.68,7.53,7.53,0,0,1-1.6,3.63,12.42,12.42,0,0,1-5.93,4.28c-.78.26-1.78.39-2.31-.24a1.87,1.87,0,0,1-.31-1.47A8.79,8.79,0,0,0,241.6,149.18Z"/><path class="cls-1" d="M203.2,159.7c-2.47,2-3.76,5.11-4.84,8.12a110.23,110.23,0,0,0-3.85,13.36c-.61,2.77-1,5.9.56,8.24l3.28-15.75a58.42,58.42,0,0,1,2.07-8,28.82,28.82,0,0,1,3.16-6.21"/><path class="cls-1" d="M197.08,162.29a61.8,61.8,0,0,0-9.1,30.92Q193.13,178,197,162.44"/><path class="cls-1" d="M187.5,169.12c-2.52,7.09-2.59,14.78-2.63,22.31a74.3,74.3,0,0,0,.61,12.21A24.64,24.64,0,0,0,190,214.88c-1.71-.27-2.73-2-3.44-3.56a62.53,62.53,0,0,1-5.38-30.6l1.78,3.51c1-1.63.72-3.71.59-5.63-.2-3.2.46-6.83,3.09-8.64"/><path class="cls-1" d="M194.37,233.91a14.58,14.58,0,0,1-5.67-8.52,29.75,29.75,0,0,1-3.26-4.61,48.21,48.21,0,0,1-6.47-21.3,1.71,1.71,0,0,0-.89-.49c-1.82,1.76-2,4.6-1.74,7.12.86,8.44,5.25,16.12,10.37,22.89a15.4,15.4,0,0,0,3.82,3.9,10.46,10.46,0,0,0,4.07,1.41Z"/><path class="cls-1" d="M175.65,212.74a17,17,0,0,0-2.06,8c0,1.64.11,3.56-1.17,4.59-.31.26-.69.43-1,.69a2.19,2.19,0,0,0-.75,1.92,5.62,5.62,0,0,1,5,1.57c.35.36.7.8,1.19.86a2.24,2.24,0,0,0,1.23-.37,5.36,5.36,0,0,1,5.52.67c-4.9-4.42-7-11.14-8.21-17.63"/><path class="cls-1" d="M175.66,238a8.49,8.49,0,0,0-7-1.62,2.79,2.79,0,0,0-2.06,1.16,14.24,14.24,0,0,0-2.3,3.81c-.18.43-.59,1-1,.72a.73.73,0,0,1-.23-.7,6.75,6.75,0,0,1,4.9-5.85,8.17,8.17,0,0,1,7.55,1.94"/><path class="cls-1" d="M168.9,248.08a4.63,4.63,0,0,0,2.87-.93,17.82,17.82,0,0,0,4.08-3.57c.42-.5.81-1.28.35-1.75-1.41.68-2.69,1.62-4.06,2.37a8.29,8.29,0,0,1-4.49,1.23c-.56,0-1.35,0-1.39.57s.52.7,1,.85a7.41,7.41,0,0,1,2.69,1.59"/><path class="cls-1" d="M164.45,248.58a13.2,13.2,0,0,0,9.17,6.54,4.46,4.46,0,0,1,1.49.41,1.26,1.26,0,0,1,.7,1.27,1.2,1.2,0,0,1-1,.84,3.17,3.17,0,0,1-1.36-.14,17.3,17.3,0,0,1-10-7.32c-.23-.36-.44-.86-.16-1.18a.72.72,0,0,1,.92,0,2.15,2.15,0,0,1,.58.81"/><path class="cls-1" d="M173,259a1.77,1.77,0,0,1-2.73-.34c-.1-.19-.21-.44-.43-.46s-.4.3-.62.44a1,1,0,0,1-.93-.06,20.31,20.31,0,0,1-8.51-6.78c.82,2.54,2.71,4.58,4.64,6.43a14,14,0,0,0,3.14,2.44,5.25,5.25,0,0,0,3.87.51,2.39,2.39,0,0,0,1.84-2.2"/><path class="cls-1" d="M168.62,262.4a1.56,1.56,0,0,1-1.54,1,4.17,4.17,0,0,1-1.82-.6,25.75,25.75,0,0,1-6.33-4.8,4.76,4.76,0,0,1-1.37-2.15.51.51,0,0,1,.1-.52c.2-.16.49,0,.67.21,1.12,1.15,1.91,2.58,3,3.72a8.85,8.85,0,0,0,7.31,2.57"/><path class="cls-1" d="M166.75,264.67c-.77.72-2,.55-3,.31-2.61-.61-5.36-1.46-7.08-3.52a4,4,0,0,1-1-3.72c.15-.43.53-.86,1-.75a1,1,0,0,1,.49.37c1.81,2,3.51,4.27,5.87,5.61a5.18,5.18,0,0,1,2.15,1.63l-.52.26"/><path class="cls-1" d="M170.08,249.79c5-3.78,10.32-7.27,14.85-11.7l-1.41-1.36a48.09,48.09,0,0,1-13.79,11.93l-.08,1.18.24.29A.46.46,0,0,1,170.08,249.79Z"/><path class="cls-1" d="M187.47,240.56a28.25,28.25,0,0,1-6.71,5.95c-2.76,1.9-5.69,3.57-8.38,5.58-.47.35-.92-.44-.45-.78,2.59-1.94,5.41-3.57,8.09-5.39a27.65,27.65,0,0,0,6.8-6c-.41-.4-.82-.8-1.24-1.19-4.58,4.48-9.93,8-15.05,11.85a.4.4,0,0,1-.22.08,12.92,12.92,0,0,0,3.83,3.14L189,242Z"/><path class="cls-1" d="M187.57,233.86l-2.4,2a.81.81,0,0,0-.26.33c-.06.25.16.47.36.63l4.44,3.57a.69.69,0,0,0,.44.2.59.59,0,0,0,.33-.17,7.66,7.66,0,0,0,2-2.63l-4.65-3.9"/><path class="cls-1" d="M148,270.29a92.24,92.24,0,0,0,8.7-6.82l-.73-.43a28.19,28.19,0,0,1-8.59,5.72c-.23.1-.5.26-.47.5a.55.55,0,0,0,.23.33C147.37,269.84,147.67,270.06,148,270.29Z"/><path class="cls-1" d="M153.29,268.51a24.45,24.45,0,0,1,6-3.51L157.49,264a99.34,99.34,0,0,1-8.8,6.94l.82.62C150.74,270.47,152,269.46,153.29,268.51Z"/><path class="cls-1" d="M160.37,265.62a21.4,21.4,0,0,0-6.62,3.67c-1.19.88-2.35,1.81-3.48,2.77.32.22.65.45,1,.66a1.17,1.17,0,0,0,.56.24,1.27,1.27,0,0,0,.83-.36l4.85-3.68a16.24,16.24,0,0,1,4.17-2.54Z"/><path class="cls-1" d="M235.06,130.74c1.28-.9,3-.15,4.38.61l.12.41a74.27,74.27,0,0,0-1.29,16.72l-.44-.08c-.41-.1-.59.53-.18.63.21.05.42.08.63.12.05,2.64.17,5.28.29,7.91l.57,12.6-2.38.19c.87-11.79-2.07-23.5-2.81-35.29C233.87,133.18,233.93,131.54,235.06,130.74Z"/><path class="cls-1" d="M235.75,171.06q-.19-2.77-.58-5.52c-1.08.74-.3,2.57-1,3.7a1.25,1.25,0,0,0-.5-.52l-.26,2.14c-.05.4,0,.94.4,1a.78.78,0,0,0,.44-.11l1.63-.76"/><path class="cls-1" d="M245.54,173.58l-6.41-1.68a2.2,2.2,0,0,0-.95-.11,2.26,2.26,0,0,0-.74.34L232.8,175a5.06,5.06,0,0,0-1.5,1.21,1.67,1.67,0,0,0-.19,1.81.57.57,0,0,0,.35.28.67.67,0,0,0,.31,0c2.89-.9,5.09-3.81,8.11-3.81,1,0,1.94.33,2.92.42a2.89,2.89,0,0,0,2.66-.92"/><path class="cls-1" d="M247,177l-6.05-.12a7.44,7.44,0,0,0-3.92.69,13,13,0,0,0-3.19,1.68,4.44,4.44,0,0,0-1.79,3,.78.78,0,0,0,0,.31c.18.41.78.17,1.13-.09a13.93,13.93,0,0,1,9.06-2.76,7.78,7.78,0,0,0,3-.12,1.94,1.94,0,0,0,1.37-2.31"/><path class="cls-1" d="M246.93,184.58q-4.92.21-9.81.67a6.3,6.3,0,0,0-2.75.7.8.8,0,0,1-.35.16c-.44,0-.52-.63-.36-1,.8-2,3.11-3,5.27-3.22s4.33.25,6.5.13a2.79,2.79,0,0,1,1,.06c.87.31,1.08,1.5.79,2.38"/><path class="cls-1" d="M235.89,189.07a18.5,18.5,0,0,1,8.15,1,1.06,1.06,0,0,1,.64.42c.23.39-.05.86-.26,1.26-1.28,2.41-.07,5.33,1.13,7.77l4.59,9.32c.16-.39.33-.79.5-1.18-.29-.76-.55-1.53-.8-2.31-1.15-3.57-2.1-7.31-1.72-11.05.2-1.94.64-4.23-.78-5.58l-.27.84a5.11,5.11,0,0,0-.48-2.75l-11.12.7c-.53,0-1.21.19-1.29.72C234.07,188.94,235.15,189.14,235.89,189.07Z"/><path class="cls-1" d="M249.1,211.84a37,37,0,0,1,2.11-5.47c.08-.36.15-.72.22-1.08a36.11,36.11,0,0,1-3.17-13.79c0-.94-.09-2.09-.93-2.52a9.63,9.63,0,0,0-2.29,8.33l-1.15-2.09A90.52,90.52,0,0,0,249.1,211.84Z"/><path class="cls-1" d="M252.9,166.69a3.19,3.19,0,0,0-2.39-1.65,7.62,7.62,0,0,0-3,.25,26.38,26.38,0,0,0-5.95,2.18q2.88-.27,5.72-.78a7.68,7.68,0,0,1,2.13-.18,2.34,2.34,0,0,1,1.8,1,1.39,1.39,0,0,0,.38.51.69.69,0,0,0,.87-.22,2.11,2.11,0,0,0,.32-.92"/><path class="cls-1" d="M250.28,158.92l-6-2.13a6.76,6.76,0,0,1-1.78-.84,3.29,3.29,0,0,1-1.16-1.61c-.55.23-.65,1-.65,1.55a24.13,24.13,0,0,0,.34,3.7.78.78,0,0,0,.28.56.75.75,0,0,0,.49,0c1.2-.17,2.32-.66,3.5-.92a18.05,18.05,0,0,1,5-.19"/><path class="cls-1" d="M230.38,152.59a23.15,23.15,0,0,1-13.83,4.63,58.57,58.57,0,0,0,4.6,8.13,1.83,1.83,0,0,0,.94.86,1.68,1.68,0,0,0,1-.11,10,10,0,0,0,4.49-3.14,2.42,2.42,0,0,1,1.08-.93c.65-.2,1.35.24,2,.09.95-.2,1.25-1.39,1.36-2.36a63.52,63.52,0,0,0,.61-10.12,10,10,0,0,1-4,3.73"/><path class="cls-1" d="M241.33,256.71c-1-.09-2-.16-2.93-.2,0,.7-.08,1.24-.13,1.59-.07.63-.14,1.43-.2,2.36a22.3,22.3,0,0,1,2.71-1.1,4.45,4.45,0,0,1,.52-.83Z"/><path class="cls-1" d="M239.11,231.07q1.44-2.3,2.81-4.64c.15-10.3.28-28.62.29-30,0-1.83,0-5.47,0-5.47l-3.71-.35a6.58,6.58,0,0,0,1.09,4.7S239.42,214,239.11,231.07Z"/><path class="cls-1" d="M235.22,237.15h0a27.79,27.79,0,0,0-10,1.85c-2.57,1-5,2.37-7.61,3.24a14.39,14.39,0,0,1-4,.77,27.55,27.55,0,0,0,8-.8,55.44,55.44,0,0,0,6.81-2.37Z"/><path class="cls-1" d="M210.41,247.77h0l-5.89-2.2C206.08,247.06,208.3,247.51,210.41,247.77Z"/><path class="cls-1" d="M230.92,244.53c.15-.31.3-.63.46-.94-5.92,4.24-13.7,5.07-20.93,4.19l.36.13a31.07,31.07,0,0,0,10.5,1,15.3,15.3,0,0,0,9.47-4.27Z"/><path class="cls-1" d="M226.37,262.08A110,110,0,0,1,213.29,261c-4.84-.75-9.84-2.11-13.39-5.49-.49-.46-.89-1.38-.3-1.69a1.11,1.11,0,0,1,.65,0l4.36.57a7.52,7.52,0,0,1-3.87-3.11c1-.63,2.24-.34,3.36-.06a67.27,67.27,0,0,0,17.59,2c-7.51-1.07-15.22-2.21-21.83-5.93L197,248.6c-2.25,2.29-1.6,6.35.58,8.69s5.44,3.37,8.57,4.07a70.31,70.31,0,0,0,19.94,1.54C226.2,262.63,226.28,262.35,226.37,262.08Z"/><path class="cls-1" d="M191.76,250.28a17.92,17.92,0,0,1-7-2.7,22.25,22.25,0,0,1-6.08,4.66,1.25,1.25,0,0,0-.59.49,1.38,1.38,0,0,0,0,.87,3.44,3.44,0,0,1-.82,3.08c-.79.86-2.15,1.61-1.88,2.75a2.19,2.19,0,0,0,.47.84,30.69,30.69,0,0,0,11.1,8.85l4.44-8.46c1.82-3.48,3.7-7.38,2.66-11.17"/><path class="cls-1" d="M187.22,277.33a90.78,90.78,0,0,0,8.05-17.59l-2,1.56A123.28,123.28,0,0,0,187.22,277.33Z"/><path class="cls-1" d="M196.9,280.92c0-6.64,1.17-13.34,0-19.88a92.69,92.69,0,0,0,5.59,19.88h.29a85.67,85.67,0,0,1-3-17.63A74.32,74.32,0,0,0,206.59,277a55.46,55.46,0,0,1-3.88-11.64,18.16,18.16,0,0,0,2.62,4.81c2.6,3.74,5.44,7.32,8.39,10.8h3.13l-.53-1.14c.33.39.67.76,1,1.14h3.27l-.44-.47c.17.17.35.31.52.47h4.44c-1.94-1.93-3.75-4-5.54-6.07a48.85,48.85,0,0,0,9.44,3.56,5.74,5.74,0,0,1-.38-.92,122.48,122.48,0,0,1-14.29-5.56c-6.73-3.2-13.08-7.42-17.94-13.07l-.39.3c0,7.26.25,14.52.75,21.76Z"/><path class="cls-1" d="M225.14,270.53c0-.57,0-1.14.08-1.72q-10.49-3.17-20.65-7.25l2,1.46-1.41-.1C211.45,266.32,218.27,268.53,225.14,270.53Z"/><path class="cls-1" d="M212.87,140.9a7,7,0,0,0-2.41.06v-.66a2.71,2.71,0,0,0,1.74-.31.33.33,0,0,1,.33.58,3.39,3.39,0,0,1-2.25.38c-.33,0-.31-.58,0-.65a8.11,8.11,0,0,1,2.78-.05.35.35,0,0,1,.23.42.35.35,0,0,1-.42.23Z"/><path class="cls-1" d="M227.42,136.18c-.62,1.27-1.39,2.89-.77,4.31l-.63.17a42.93,42.93,0,0,1,.81-4.8c.1-.43.75-.24.65.18a40.54,40.54,0,0,0-.79,4.62.35.35,0,0,1-.25.33.36.36,0,0,1-.38-.16c-.73-1.69,0-3.46.78-5,.19-.39.77,0,.58.35Z"/><path class="cls-1" d="M204.75,131.3a1.48,1.48,0,0,1-.22.68,1.49,1.49,0,0,1-.53.5.32.32,0,0,1-.34,0,1.9,1.9,0,0,1-.41-.39.67.67,0,0,1-.1-.58.64.64,0,0,1,.43-.43.51.51,0,0,1,.3,0,.49.49,0,0,1,.29.22.34.34,0,0,1,0,.26.32.32,0,0,1-.16.2.33.33,0,0,1-.26,0,.48.48,0,0,1-.2-.15h0l0,.07,0,0,.07.05,0,0,.08,0h0l.09,0-.06,0,.08,0-.07,0,.07-.05a.09.09,0,0,0-.06.06l.05-.07-.05.07,0-.08s0,0,0,.06l0-.09a.08.08,0,0,0,0,.07v-.09a.29.29,0,0,0,0,.09l0-.08a.34.34,0,0,0,.06.12l-.05-.07a.72.72,0,0,0,.2.19l-.07,0,.09.07h-.34l.13-.09-.07.05a1,1,0,0,0,.21-.2l-.06.07a1.4,1.4,0,0,0,.16-.26l0,.08a1,1,0,0,0,.08-.29v.09s0,0,0-.06a.37.37,0,0,1,.1-.24.34.34,0,0,1,.24-.09.33.33,0,0,1,.24.1.34.34,0,0,1,.09.24Z"/><path class="cls-1" d="M200.31,130.4a11.14,11.14,0,0,1,.3,3.77.34.34,0,0,1-.68,0,17.42,17.42,0,0,0-.55-3.2.34.34,0,0,1,.66-.17,19.14,19.14,0,0,1,.57,3.37h-.68a10.32,10.32,0,0,0-.27-3.59c-.11-.42.55-.6.65-.18Z"/><path class="cls-1" d="M209.91,144.33a1.62,1.62,0,0,1,1.59-.72c.81,0,1.71.59,2.47.12a5.33,5.33,0,0,1,.92-.55,2.91,2.91,0,0,1,1-.17,4.78,4.78,0,0,0,2.32-.2l.34.59a15.87,15.87,0,0,1-8.28,1.47c-.43,0-.43-.71,0-.67a15.09,15.09,0,0,0,7.94-1.39c.39-.18.72.37.34.59a3.66,3.66,0,0,1-2,.31,5.36,5.36,0,0,0-1.06,0,2.24,2.24,0,0,0-1,.47,2.32,2.32,0,0,1-2.06.29c-.59-.13-1.57-.46-2,.2a.34.34,0,0,1-.58-.34Z"/><path class="cls-1" d="M215.26,146.7a14.87,14.87,0,0,1-3.19.37.34.34,0,0,1,0-.68c.59,0,1,.34,1.57.48a.83.83,0,0,0,.49,0,.34.34,0,0,0,.15-.09h0l0-.06s0,0,0,0a.33.33,0,0,1,.29-.33.32.32,0,0,1,.37.24c.09.6-.44.93-1,.92a1.79,1.79,0,0,1-.79-.25.88.88,0,0,0-.76-.17.33.33,0,0,1-.41-.24.35.35,0,0,1,.24-.42c.55-.22,1,.17,1.49.36a.64.64,0,0,0,.43,0s.11,0,.06,0l.05,0h0s0,0,0,0,0,0,0,0h0s0,0,0,0l.66-.09a1.05,1.05,0,0,1-1.18.9,2.22,2.22,0,0,1-.87-.24,1.82,1.82,0,0,0-.87-.25v-.68a13.91,13.91,0,0,0,3-.34c.42-.1.6.55.17.65Z"/><path class="cls-1" d="M205.81,145.14a.34.34,0,0,1,0-.67.34.34,0,0,1,0,.67Z"/><path class="cls-1" d="M200.63,132.77a9.21,9.21,0,0,0,1.45,5.25l2.74,5.1a.34.34,0,0,1-.58.34c-1-1.81-2-3.62-2.92-5.44a9.43,9.43,0,0,1-1.37-5.26c.05-.42.73-.42.68,0Z"/><path class="cls-1" d="M323.35,174.16c.86,0,1.72,0,2.58,0,6.18,0,6.18,0,5.48-5.85a2.32,2.32,0,0,1,0-.37c.16-2.92-1.42-3.92-4.1-3.81-1.34.06-2.7-.07-4,0-3.47.18-5.1,2.17-5,5.83C318.27,173.46,320.42,174.25,323.35,174.16Z"/><path class="cls-1" d="M324,201.61c4.34,1.78,8.83,1.47,13.33.87a1.56,1.56,0,0,0,1.27-1.14c1.71-4.31-.33-7.41-5-7.53-.85,0-1.71,0-2.57,0v-.11c-1.94.16-3.89.33-5.84.47s-3.81-.15-4.12,2.53A4.33,4.33,0,0,0,324,201.61Z"/><path class="cls-1" d="M326.44,189c1.23,0,2.21,0,3.19,0,4-.09,4.57-1.05,2.95-4.69-2.25-5.05-6.33-6.91-11.48-5.27-1.29.41-1.55,1.32-1.68,2.51a9.91,9.91,0,0,0,2,6.91C322.72,190.21,325,188.4,326.44,189Z"/><path class="cls-1" d="M338.33,165.35c-1.11.3-1.63.73-1.66,2-.14,5.14.88,6.27,5.94,6.32h2.94v.06c1.71,0,3.42,0,5.13,0,.84,0,1.78.07,2.36-.7,1-1.37-2-8.29-3.76-8.25C345.63,164.83,341.94,164.35,338.33,165.35Z"/><path class="cls-1" d="M340.07,97a3.66,3.66,0,0,0-3.24-1.33c-1.64.29-1.34,1.86-1.6,3a32.14,32.14,0,0,0-.55,3.65c-.09.75-.1,1.61-.86,1.91-.94.38-1.64-.3-2.21-1a12.83,12.83,0,0,1-1.56-2.06c-1.52-2.81-3.17-2.79-4.95-.29-1.21,1.71-2.39,1.88-3.83.23-.71-.8-1.31-1.82-2.82-2.12-1.29,4.57-2.18,5-6.49,3.57-1.76-.57-2.17-1.92-2.47-3.34-.55-2.56-1.73-5.29-4.27-5.23-2.05.06-3.12,2.77-3.44,5.13-.36,2.71-2.5,3.34-4.75,3.85a3.75,3.75,0,0,1-4.61-2.07c-1.33-2.5-2.8-3.09-4.52-.33-1.06,1.69-2.39,2.35-3.64.32-1.73-2.81-3-1.6-4.31.27-.5.71-1,1.4-1.56,2.07-1.34,1.66-2.47,2-3.35-.45-.69-2-1.8-3.79-2.33-5.78-.75-2.82-2.29-3-4.19-1.44-3.46,2.78-6.43,6-6.65,10.78-.2,4.37,2.36,8,3.39,12,1.16,4.49,3.11,9,1.22,13.83-.6,1.56.1,2.66,1.91,2.74,2.09.1,4.19.14,6.27.28,2.33.16,3.92-.37,3.63-3.19-.19-1.89.85-2.67,2.64-2.75s2.86.84,2.74,2.31c-.31,4,2.08,4,4.89,3.81,1.35-.1,2.71.1,4.06,0,1.15-.07,2.83.1,2.43-1.8-.27-1.31-.5-3.09-2.62-2.92a9.21,9.21,0,0,1-1.46.17c-1.19-.11-2.27-.56-2.26-1.94s1.12-1.45,2.13-1.52c1.23-.09,2.45-.14,3.68-.23s2.92-2.2,4,.42c.63,1.55,2.16,3.48,1.71,4.61-1.52,3.78,1.09,3.32,3.06,3.47.78.06,1.57.08,2.35.09a5.09,5.09,0,0,1-.25-2.59,4,4,0,0,1,2-2.55.56.56,0,0,1,.67.09,3.46,3.46,0,0,1,1.06,2.07,17.47,17.47,0,0,1-.05,2.17.55.55,0,0,1-1.09,0c0-.67.1-1.34.06-2a1,1,0,0,0,0-.3,2,2,0,0,0-.11-.36,2.51,2.51,0,0,0-.3-.47,3.23,3.23,0,0,0-.71.66,2.2,2.2,0,0,0-.44,1,2.76,2.76,0,0,0,0,.54,2.71,2.71,0,0,0,.07.58,6,6,0,0,0,.33,1.12c.92,0,1.84,0,2.76,0,1.83,0,3-.89,2.52-2.72-1.23-4.59,1.95-4.77,4.93-5.17a30.42,30.42,0,0,1,3.31-.12c1.05,0,2-.23,2.15-1.51l.94.06a5.88,5.88,0,0,0,3.12-.42,3,3,0,0,0,.55-.39c.75,3.21,3.11,3.27,9.5,2.36.88-.13,2-.21,2.09-1.16a8.53,8.53,0,0,1,1.69-3.88,24.82,24.82,0,0,0-5.46-1.87c-2.9,0-5.81,0-8.71-.05a32.24,32.24,0,0,0-7.34,2.36c-.53.24-1-.54-.46-.78a37.52,37.52,0,0,1,4.2-1.62h-.87c-16.68-.23-33.35-.75-50-.75a.55.55,0,0,1,0-1.1q7.11,0,14.22.11c13.82.19,27.63.56,41.44.69a23.72,23.72,0,0,1,6.41,0l.17,0,2,0a.52.52,0,0,1,.53.54,26.21,26.21,0,0,1,4.45,1.67,28.17,28.17,0,0,0,2.07-2.84C347.7,111.16,346.65,103.29,340.07,97ZM289,124c.55.18.31,1.06-.24.88-6.82-2.25-14.54-2.35-20.79,1.52a.46.46,0,0,1-.46-.79C273.94,121.57,282,121.63,289,124Zm-18.44-10a7.93,7.93,0,0,1-3.84-4.83,9.5,9.5,0,0,1,.64-6.21c.29-.64,1.23-.08,1,.56a8.25,8.25,0,0,0-.53,5.36,6.81,6.81,0,0,0,3.33,4.17A.55.55,0,0,1,270.54,114Zm48.73-6.86c.17-.21.11-.68.2-.94a1.6,1.6,0,0,1,.76-.86.56.56,0,0,1,.67.08c.41.39.91.64,1.35,1a2.76,2.76,0,0,1,.56.63,4,4,0,0,1,2.57-1.25,3.51,3.51,0,0,1,2.53,1.45,5.45,5.45,0,0,1,2.45-1.13.55.55,0,0,1,.48.27,8.61,8.61,0,0,0,1.63,2,.55.55,0,0,1-.78.78,11.07,11.07,0,0,1-1.61-1.94,9.86,9.86,0,0,0-2,1.17.58.58,0,0,1-.67-.09c-.49-.61-1.15-1.44-2-1.44s-1.73.85-2.34,1.44a.56.56,0,0,1-.92-.24c-.27-.75-1-1.11-1.57-1.56a2,2,0,0,0-.14.59,1.62,1.62,0,0,1-.37.78C319.59,108.44,318.82,107.66,319.27,107.12Zm-6.53-1.38a2.77,2.77,0,0,1,2.37,2.38c-1.54-.81-3.06-1.7-4.61-2.35A4,4,0,0,1,312.74,105.74Zm-8.28-1.94a3.8,3.8,0,0,1,1.64-2.34.55.55,0,0,1,.75.2,8.28,8.28,0,0,1,1,2.48,11.23,11.23,0,0,1,.34,2.51.55.55,0,0,1-1.1,0,8.66,8.66,0,0,0-.3-2.21,8.27,8.27,0,0,0-.58-1.65l-.08.06a2.36,2.36,0,0,0-.31.38c0,.08-.09.16-.13.24a.67.67,0,0,0-.06.12.11.11,0,0,0,0,0,2.41,2.41,0,0,0-.08.25s0,.08,0,.12v0h0a2.78,2.78,0,0,0,.07,1,10,10,0,0,0,.46,1.4.56.56,0,0,1-.39.68.56.56,0,0,1-.67-.39A5.64,5.64,0,0,1,304.46,103.8Zm-23.5,2a1.44,1.44,0,0,1,1.72,0,6.78,6.78,0,0,0,1.67.81,3.39,3.39,0,0,0,1.68-.21l2.73-.71a8.26,8.26,0,0,1,2.19-.43,4.62,4.62,0,0,1,1.66.64c.6.31,1.18.66,1.8,1a3.93,3.93,0,0,0,3,.45,12.55,12.55,0,0,1,2-1,3.71,3.71,0,0,1,3,.77c.58.4,0,1.35-.56,1a2.48,2.48,0,0,0-2.86-.35,4.5,4.5,0,0,1-2,.89,6.8,6.8,0,0,1-3.09-.74c-.58-.28-1.14-.61-1.71-.91a3.43,3.43,0,0,0-1.31-.52,8.56,8.56,0,0,0-2.15.48l-2.52.65a5.81,5.81,0,0,1-1.6.25,4.27,4.27,0,0,1-1.79-.63c-.25-.14-.49-.31-.75-.43s-.29-.12-.34-.09c-.38.24-.42,1.75-.46,2.21-.06.7-1.16.7-1.1,0C280.2,107.87,280.21,106.46,281,105.77Zm55.79,7.69a8,8,0,0,1-4.06,2.37,4.14,4.14,0,0,1-3.57-1.08,5.25,5.25,0,0,1-7.4.69c-2.75,1.41-8.32,2.81-10.23-.19-1.75,2.5-6.14,1-8.45-.57a5.8,5.8,0,0,1-3.92,2.25,5.45,5.45,0,0,1-4.19-1.66,5.51,5.51,0,0,1-4.67,2.53,6.17,6.17,0,0,1-4.94-2.54,4.88,4.88,0,0,1-4.08,1.62,3.7,3.7,0,0,1-3.24-3.23c-.1-.7,1-1,1.06-.3a2.66,2.66,0,0,0,2.33,2.45,4,4,0,0,0,3.52-1.72.56.56,0,0,1,.95,0c1.86,3.24,6.79,3.62,8.47,0a.56.56,0,0,1,.87-.11,4.75,4.75,0,0,0,3.75,1.88,4.89,4.89,0,0,0,3.52-2.2.56.56,0,0,1,.86-.11c1.7,1.39,6.74,3.59,7.65.24a.56.56,0,0,1,1.06,0c.45,1.85,2.39,2.19,4,2.11a12.58,12.58,0,0,0,5.44-1.58.56.56,0,0,1,.66.09,4.18,4.18,0,0,0,6.42-.75.56.56,0,0,1,.87-.11,3.17,3.17,0,0,0,3.28,1.16,7.24,7.24,0,0,0,3.22-2C336.48,112.19,337.25,113,336.75,113.46Zm0-2H280.24a.55.55,0,0,1,0-1.1h56.55A.55.55,0,0,1,336.79,111.48Zm4.76.16a.55.55,0,0,1-.95-.56,8.63,8.63,0,0,0,1.1-4.3,15.93,15.93,0,0,0-.73-4.27.55.55,0,0,1,1.06-.29,16.83,16.83,0,0,1,.77,4.72A9.69,9.69,0,0,1,341.55,111.64Z"/><path class="cls-1" d="M381.91,265.37c-.12-1.28-1.1-2.74-2.59-2.59l-10.42,1c-11,.12-21.92.06-32.88,0a53.18,53.18,0,0,1-10.74,1.94c0,2.66.24,5.34.09,8s.77,3.23,3.15,3.18q8.48-.19,17-.05c1.11,0,2.24-.07,3.37,0a5.63,5.63,0,0,1,1.11-3.49c1.27-1.53,3.46-1.49,5.16-.8a9,9,0,0,1,4.64,4.16l0,.06c1.73,0,3.48.06,5.23.1a.71.71,0,0,1-.29-.83,9.12,9.12,0,0,1,1.95-3.75,5.2,5.2,0,0,1,5.31-1.67c2.24.69,3.55,2.84,4.14,5a.8.8,0,0,1-1.55.42,6.74,6.74,0,0,0-1.5-2.89,3.65,3.65,0,0,0-1.82-1.06,3.31,3.31,0,0,0-1.86.17,6.07,6.07,0,0,0-3.12,4.21.79.79,0,0,1-.3.42h.34c3.42,0,5.47,0,6.72-.54,2.6.42,5.54.76,7.38-.8C383.06,273.34,382.18,268.37,381.91,265.37Zm-39.77,10.84a.84.84,0,0,1-1-.57,5.17,5.17,0,0,0-3.26-2.95,2.55,2.55,0,0,0-1-.12h-.28l-.13,0a2.88,2.88,0,0,0-.5.15l-.19.1-.21.13a1,1,0,0,0-.16.13l-.22.21a3.33,3.33,0,0,0-.64,1,.83.83,0,0,1-1,.56.8.8,0,0,1-.56-1,4.84,4.84,0,0,1,1.86-2.39,4.7,4.7,0,0,1,4.58,0,6.84,6.84,0,0,1,3.25,3.63A.82.82,0,0,1,342.14,276.21Zm34.16-7.95.76-.07c0,.23.05.45.07.68A2.56,2.56,0,0,0,376.3,268.26Z"/><path class="cls-1" d="M356.55,275.29a6.28,6.28,0,0,0-1-.73,6.52,6.52,0,0,0-1-.51,5.45,5.45,0,0,0-1.12-.3l-.21,0h-.26l-.45,0-.21.05-.24.07-.11,0-.21.12a1.37,1.37,0,0,0-.2.13l-.15.13a1.39,1.39,0,0,0-.27.3,4.61,4.61,0,0,0-.61,2.49,6,6,0,0,1,2.18.91h1A14.81,14.81,0,0,1,358,276.9,7.08,7.08,0,0,0,356.55,275.29Z"/><path class="cls-1" d="M345.39,150.88a75.71,75.71,0,0,0-9.48.77c-.93.09-1.37.81-1.61,1.75-1.2,4.68-.3,6.47,3.79,6.83a5.18,5.18,0,0,1,.72-1.79,3.05,3.05,0,0,1,3.26-1.45c1.49.41,2.23,2,2.51,3.39h.31c2.28,0,4.58.15,4.82-3C350,153.73,348.33,150.93,345.39,150.88Z"/><path class="cls-1" d="M343.2,159.54a4.89,4.89,0,0,0-.26-.51,3.43,3.43,0,0,0-.23-.33l-.31-.32-.06,0h0l-.14-.09-.18-.1-.07,0s0,0,0,0l-.31-.09h-.46l-.37.1h-.05l-.14.08a2.52,2.52,0,0,0-1,1,4.85,4.85,0,0,0-.41,1.06h2v.07h2.23A6.22,6.22,0,0,0,343.2,159.54Z"/><path class="cls-1" d="M337.06,138c-3.36,0-5.27,1.18-5.43,4.45-.19,3.87,1.76,5.82,5.43,5.9h2.21v.22a22.17,22.17,0,0,1,2.94,0c3.47.49,4.23-1.23,3.91-4.29C345.57,139.14,343.86,138.08,337.06,138Z"/><path class="cls-1" d="M324.66,151.38c-2.87.49-6.78-1.33-6.77,3.94,0,5.72.5,6.4,5.37,6.44a11.56,11.56,0,0,0,2.91-.29.56.56,0,0,1-.21-.42,7.89,7.89,0,0,0,0-.84v-.09l0-.19c0-.11-.05-.23-.07-.34a6.6,6.6,0,0,0-.2-.63v0l-.06-.13-.14-.25a1.64,1.64,0,0,0-.14-.22l-.05-.07,0,0a3,3,0,0,0-.3-.32l-.08-.06h0l-.15-.1a1,1,0,0,0-.17-.1l-.05,0h0l-.33-.09h-.28a.61.61,0,0,0-.13,0l-.09,0h0l-.08,0-.13.09,0,0-.13.12h0l0,0-.1.17,0,.07c0,.12-.08.24-.11.36s0,.08,0,.12,0,.15,0,.23a2.83,2.83,0,0,0,0,.5v0l0,.15a2.61,2.61,0,0,0,.06.27c.05.22.12.43.19.64a.54.54,0,0,1-.38.67.56.56,0,0,1-.68-.38,4.39,4.39,0,0,1-.2-2.79,2.21,2.21,0,0,1,1.29-1.41,2.27,2.27,0,0,1,1.77.11c1.59.75,2.07,2.78,2.08,4.37,0,0,0,.06,0,.09,1.82-.93,2.43-3.07,2.51-7.6C329.61,149.56,326.08,152.48,324.66,151.38Z"/><path class="cls-1" d="M333.17,135.09a80.15,80.15,0,0,0,8.06-.72c1.66-.25,2.19-1.24,1.2-2.93-1.57-2.69-4.07-2.3-6.51-2.29-.86,0-1.73.07-2.58,0-2.24-.23-3.85,1-4,2.92C329.26,134.16,331.07,135.2,333.17,135.09Z"/><path class="cls-1" d="M305.39,151.49c-4.36.06-5.29.95-5.25,5.06,0,3.45.71,4.55,4.55,4.38a6.87,6.87,0,0,1-.41-3.27,6,6,0,0,1,1.71-3.42.55.55,0,0,1,.77,0c2,1.66,2.64,4.19,2.72,6.71,1.63.09,3.15-.19,3.29-2.52C313.15,152.15,312,151.41,305.39,151.49Z"/><path class="cls-1" d="M308,157.93a5.87,5.87,0,0,0-1.53-2.5,5.27,5.27,0,0,0-.58,5.41l.7-.06a9.09,9.09,0,0,1,1.84.07A11.09,11.09,0,0,0,308,157.93Z"/><path class="cls-1" d="M322.59,145.14a2.64,2.64,0,0,0-.41.58,2.37,2.37,0,0,0-.21.91,6.52,6.52,0,0,0,.25,1.86,9,9,0,0,1,1.16,0A6.36,6.36,0,0,0,322.59,145.14Z"/><path class="cls-1" d="M321.14,138.9c-2.75-.05-4.81.22-4.69,3.87.18,5.35.06,5.67,4.64,5.73a6.51,6.51,0,0,1-.21-2.05,3.56,3.56,0,0,1,1.5-2.58.55.55,0,0,1,.66.09,6.6,6.6,0,0,1,1.44,4.57c1.75,0,3.31-.38,3.22-3.64C327.57,139.91,326.62,139,321.14,138.9Z"/><path class="cls-1" d="M350.82,193c-7.27.37-7.2.36-6.75,7.25.15,2.19.92,3.1,3.13,3a37.48,37.48,0,0,1,8.46.42c2.21.43,3-.6,3-2.9C358.48,192.8,358.39,192.63,350.82,193Z"/><path class="cls-1" d="M307.09,143.83a2.92,2.92,0,0,0-1.2,1.79,3.52,3.52,0,0,0,.87,2.62.72.72,0,0,1,.12.21h.71l.6,0A7.92,7.92,0,0,0,307.09,143.83Z"/><path class="cls-1" d="M307.64,138c-4,0-5.48,1.52-5.53,6,0,2.95.69,4.06,3.42,4.37a3.85,3.85,0,0,1,1.42-5.77.56.56,0,0,1,.67.08,8.7,8.7,0,0,1,1.66,5.59c2.33-.61,3.48-2.68,3.57-6.63C312.92,138.06,310.15,138.13,307.64,138Z"/><path class="cls-1" d="M346.23,178.31c-1.89.51-3.71.15-5.54.1-2.16-.06-3.59.66-3.62,3.38,0,5.17,2.51,8.16,7.72,8.07,3.17-.06,6.33-.58,9.49-.84,1.8-.15,2.26-1.12,2-2.75-1-6.61-1.69-7.23-8.3-7.74C347.38,178.49,346.78,178.38,346.23,178.31Z"/><path class="cls-1" d="M306.26,217.38A4.62,4.62,0,0,0,303.6,220a5.84,5.84,0,0,0,0,3.34,31,31,0,0,0,4.91-.49C308.23,220.85,307.77,218.85,306.26,217.38Z"/><path class="cls-1" d="M314.37,209.78a9.13,9.13,0,0,0-7-.43,18.12,18.12,0,0,0-5.6.29h-1.42V210c-3.12,1.06-3.44,3.55-3.38,6.57s-.07,6.08,3.55,6.62a19.23,19.23,0,0,0,2,.16,6.62,6.62,0,0,1,.14-3.82,5.93,5.93,0,0,1,3.62-3.34.55.55,0,0,1,.53.14c1.92,1.64,2.48,4,2.82,6.32.53-.12,1.05-.25,1.52-.39C316.15,220.74,320.26,213.19,314.37,209.78Z"/><path class="cls-1" d="M308,189a.5.5,0,0,1,0-.12,9.68,9.68,0,0,0-1.72-5.22,4.27,4.27,0,0,0-1.24,2.47,15.19,15.19,0,0,0-.23,2.86,10.93,10.93,0,0,0,1.28,0H308Z"/><path class="cls-1" d="M309.06,179c-2.69-.13-5.4.1-8.09.21a1.92,1.92,0,0,0-2,1.79c-.32,2.57-.87,5.39.47,7.59.86,1.42,2.65.49,4.24.35,0-2.42.23-5.18,2.42-6.53a.56.56,0,0,1,.75.19,10.76,10.76,0,0,1,2.21,6.28.25.25,0,0,1,0,.12h2.55c.88,0,1.73-.11,2.14-1.08C314.41,186.3,310.81,179.11,309.06,179Z"/><path class="cls-1" d="M320.19,135.19c1.07,0,1.93.06,2.78,0,1.27-.1,3,.28,2.88-1.82a2.63,2.63,0,0,0-2.93-2.65,14.38,14.38,0,0,0-2.54.24c-1.92.41-5.24-1.14-5.22,2.18C315.17,136.67,318.57,134.56,320.19,135.19Z"/><path class="cls-1" d="M315.24,195.59c-.86-2.6-3.27-1.58-5.09-1.76a47.6,47.6,0,0,0-4.78-.09c-6.57,0-7.29,1-7.22,7.48,0,3.33,1.5,4.38,4.5,4.22l1,0a7.24,7.24,0,0,1,.56-2.41c.61-1.38,2-2.73,3.6-2.56,2,.22,3,2.4,3.35,4.17.14.69-.92,1-1.06.29a5.65,5.65,0,0,0-1.21-2.74,2,2,0,0,0-.72-.52c.1.05-.11,0-.14,0l-.18-.05c-.15,0,0,0-.14,0h-.38l-.14,0a2.4,2.4,0,0,0-.38.12l-.16.08-.2.12a1.51,1.51,0,0,0-.28.22,4.79,4.79,0,0,0-1.42,3.3l2.29,0v.05c1.84,0,3.69,0,5.53,0,.86,0,1.83,0,2.25-.9A12.21,12.21,0,0,0,315.24,195.59Z"/><path class="cls-1" d="M307.5,171.13a4.1,4.1,0,0,0-2.15,1.82,3.7,3.7,0,0,0-.4,1.59,17.76,17.76,0,0,0,2.68.2c.72,0,1.33,0,1.87-.05A9.66,9.66,0,0,0,307.5,171.13Z"/><path class="cls-1" d="M312.31,165.54c-3-.5-6.08-.58-9.12-.79-2-.13-2.85.81-3,2.8-.36,3.84.7,5.94,3.72,6.76a4.88,4.88,0,0,1,.53-1.92,5.31,5.31,0,0,1,3.11-2.44.54.54,0,0,1,.54.14,10.71,10.71,0,0,1,2.55,4.46c1.89-.39,2.55-1.53,3.88-4.68C315.52,167.39,314.65,165.93,312.31,165.54Z"/><path class="cls-1" d="M230.5,260.25c14.17-5.41,25.56-1.5,37.79-.4,3.61.32,7.25-.08,10.88-.12,2.38,0,2.38-3.73,0-3.7l-37.79.4-10.88.12C228.12,256.57,228.27,261.1,230.5,260.25Z"/><path class="cls-1" d="M259.42,188.59c2.56,0,5.14.09,7.7,0,2.22-.11,5.72-7.21,4.47-8.94a1.35,1.35,0,0,0-.89-.53c-3.79-.2-7.61-1-11.36-.1-2.86.68-4.72,4.46-4,7.78C255.79,189,257.68,188.94,259.42,188.59Z"/><path class="cls-1" d="M286.61,272.66l-.41-9.25c-1.7,0-3.39.09-5.09.1a2.46,2.46,0,0,1-.49-.05,27.79,27.79,0,0,1-4.14.16c-14.22,0-28.45,0-42.67-.05a2.59,2.59,0,0,0-1.84-.95l-3-.28a2.6,2.6,0,0,0-2.59,2.59q.36,6.07.56,12.14a2.62,2.62,0,0,0,2.59,2.59l40.44-.59a.91.91,0,0,1-.34-.64.88.88,0,0,1,0-.16.5.5,0,0,1,0-.12c0-.1,0-.21-.07-.32a4.31,4.31,0,0,0-.21-.67.42.42,0,0,0,0-.1l0-.06a2.85,2.85,0,0,0-.16-.3c-.1-.19-.21-.36-.32-.54l-.08-.1,0,0-.18-.21a3.85,3.85,0,0,0-.35-.35l-.15-.13,0,0-.14-.1a4.28,4.28,0,0,0-.42-.26l-.25-.13h-.07a3.66,3.66,0,0,0-.44-.13l-.19,0h-.61l-.06,0-.19,0-.19.07-.08,0-.2.12L265,275l-.28.27-.07.09,0,0-.13.21a3.46,3.46,0,0,0-.24.45,7,7,0,0,0-.33,1.28.8.8,0,0,1-1,.56.83.83,0,0,1-.56-1,5.14,5.14,0,0,1,1.44-3,3.83,3.83,0,0,1,4.61-.23,6.12,6.12,0,0,1,2.81,4.73.68.68,0,0,1-.32.62l12.7-.18a2.42,2.42,0,0,0,1.86-.83l.06.06c.78.85,1.06,0,1.16-.49C287,276,287.8,274.37,286.61,272.66Zm-46.42,5.26a.8.8,0,0,1-1-.56,8.6,8.6,0,0,0-.19-.88c0-.13-.09-.26-.13-.39s0-.15-.08-.22l0,0h0a7.17,7.17,0,0,0-.79-1.37l0,0,0,0-.09-.11c-.07-.09-.15-.17-.22-.25s-.28-.28-.43-.42l-.18-.15-.2-.15a5.58,5.58,0,0,0-.52-.32l-.25-.13-.06,0-.06,0-.49-.14c-.08,0-.38,0-.12,0h-.51l-.28.07-.07,0-.16.09c-.06,0-.25.2-.07,0L234,273l-.11.12-.23.39v0h0c0,.05,0,.1-.05.15a1.81,1.81,0,0,0-.09.31l-.06.27s0,.12,0,.14a.28.28,0,0,0,0,.09,8.34,8.34,0,0,0,0,1.8.81.81,0,0,1-1.61,0,6,6,0,0,1,.57-3.86c1.07-1.72,3.18-1.68,4.78-.76a7.52,7.52,0,0,1,3.51,5.26A.83.83,0,0,1,240.19,277.92Zm13.57-.56a4.61,4.61,0,0,0-1.26-2.29l-.24-.2,0,0-.06-.05a4.92,4.92,0,0,0-.45-.28l-.26-.13h0l-.11,0a4.34,4.34,0,0,0-.48-.14l-.24,0H250l-.18,0-.19,0-.43.13-.1,0h0l-.22.12-.21.13-.15.1-.17.15-.16.16-.15.18-.11.14a4.51,4.51,0,0,0-.74,2.21.8.8,0,1,1-1.6,0,6.06,6.06,0,0,1,1.24-3.4,4.48,4.48,0,0,1,4.71-1.45,5.71,5.71,0,0,1,3.76,4.21A.8.8,0,0,1,253.76,277.36Zm27-.64v-.11l0-.13a2.29,2.29,0,0,0-.12-.37,5.07,5.07,0,0,0-.29-.69c-.19-.43-.39-.87-.57-1.31l-.17,0h-.08a4.28,4.28,0,0,0-.79.17l-.33.12h0l0,0-.14.07a4.12,4.12,0,0,0-.63.39l-.06,0a.86.86,0,0,0-.14.13,2.37,2.37,0,0,0-.28.27l-.24.27a.28.28,0,0,1-.06.08l-.11.17a5.74,5.74,0,0,0-.71,1.48.82.82,0,0,1-1,.56.81.81,0,0,1-.56-1,6.78,6.78,0,0,1,2.26-3.35,6.16,6.16,0,0,1,3.65-1.1.84.84,0,0,1,.78.6c.41,1.19,1.28,2.34,1.31,3.64C282.36,277.75,280.75,277.75,280.72,276.72Z"/><path class="cls-1" d="M377.1,244.84a21.19,21.19,0,0,1-7.62-8.71c-3-6-4.55-12.47-6-18.85-1.37-5.88-3-10.24-10-10a4.42,4.42,0,0,1-1.72-.64,5.86,5.86,0,0,0-6.58.9c-3.32,2.95-7,3-10.67,1.32a23.48,23.48,0,0,0-10.4-1.84c-5.31.07-5.46.45-3.45,5.32l0,0c1.77,7.41,3.28,14.89,4.46,22.42.53,3.39.45,7.46,1.51,10.76a4.85,4.85,0,0,0-.29,1.64.7.7,0,0,0-.44.13c-.76.51-.21,1.14.28,1.81a21.33,21.33,0,0,1,1.32,2.15h1.18a7.17,7.17,0,0,0,3.19,1.16c6.72.76,14-.15,20.76-.28a2.48,2.48,0,0,0,1.58-.56q8.78-.16,17.54-.9a34.33,34.33,0,0,0,4.06,0c2.08-.26,5.38,1.14,5.9-1.17C382.16,247.57,379.05,246.09,377.1,244.84Zm-29.83-26.77a6.31,6.31,0,0,0,1.62-2.85,4.07,4.07,0,0,1,4.49-3.52c2.46.17,4.26,1.16,4.84,4.11,1,5.27,1.24,5.25-4.14,6.06-1.46.22-2.93.33-4.4.48s-2.75.17-3.6-1.21S346.49,218.92,347.27,218.07Zm-7.62-4.9c.79-.65,1.94.49,1.13,1.14a10.32,10.32,0,0,0-3.86,5.42,6.33,6.33,0,0,0,3.43,6.82c2.33,1.29,5.24,1.21,7-1,.65-.8,1.79.34,1.14,1.14a6.35,6.35,0,0,1-4.81,2.29,8.76,8.76,0,0,1-7.87-5C334,219.85,336.44,215.79,339.65,213.17Zm-3.72,19.05h16.71a.8.8,0,0,1,0,1.6h-9l-.12.23c0-.05,0-.1,0-.15v-.08h-7.6A.8.8,0,0,1,335.93,232.22Zm-1.9-14a1.41,1.41,0,0,0,.18.14,5.1,5.1,0,0,0,.23.56,2.79,2.79,0,0,0-.5,0Zm13.43,24c-.26,2.69-3.17,4.45-5.51,5.11a10,10,0,0,1-6.6-.43,7.62,7.62,0,0,1-3.63-3.59c-1.83-3.62-1.82-8-2.08-12a45.47,45.47,0,0,0-.67-6.17,10.28,10.28,0,0,0-2-4.69c-.46-.54.31-1.32.77-.78,2.47,2.86,2.68,7.12,2.93,10.71s.24,7.45,1.42,10.93a7.9,7.9,0,0,0,2.38,3.73,7.49,7.49,0,0,0,4.69,1.48,8.05,8.05,0,0,0,6.57-2.91,2.67,2.67,0,0,0,.29-3,6.13,6.13,0,0,0-3.12-2.38,3.49,3.49,0,0,0-4.16,1.27,1.92,1.92,0,0,0-.27.66c0,.19,0,.24.06.29.33.29,1.38-.13,1.83-.33.64-.29,1.2.66.55,1-.83.37-2,.87-2.91.35a1.49,1.49,0,0,1-.52-1.81,4.4,4.4,0,0,1,4.77-2.67,7.35,7.35,0,0,1,3.55,1.78A4.08,4.08,0,0,1,347.46,242.28Zm9.18-.65a8.7,8.7,0,0,1-3,4.81c-.78.68-1.92-.46-1.14-1.14a7.36,7.36,0,0,0,2.56-4,6.14,6.14,0,0,0-1-4.48c-.55-.88.85-1.69,1.39-.81A7.88,7.88,0,0,1,356.64,241.63Zm.95-8.35c-2.79-.36-3-3.24-3.69-5.31-.54-1.71,1.11-2.42,2.48-2.33,2.9.18,2.69,2.6,2.95,4.37C359.25,231.6,359.37,233.52,357.59,233.28Zm9.22,11c-1.72.52-6.67-3.85-6.55-4.94.31-1.51.52-2.34.65-3.18s.35-1.7,1.45-1.79c.85-.08,1.3.45,1.72,1.1,1.27,2,1.71,4.4,3.81,6C368.88,242.25,368.32,243.86,366.81,244.31Z"/><path class="cls-1" d="M257.85,202.58a20.58,20.58,0,0,0,2.94,0c1.84,0,3.69,0,5.53,0a2.29,2.29,0,0,0,2.37-1.34,5.75,5.75,0,0,0-5.24-8.38c-1.95.06-3.91.15-5.84.38-3.8.45-4.88,2.25-4.66,6.88C253.14,204.07,256,202.27,257.85,202.58Z"/><path class="cls-1" d="M273.15,207.87a2.15,2.15,0,0,1,.56-1.24,22,22,0,0,0-2.31.22c-2.27.34-4.67,1-3.93,4.44.28,1.32-.75,2.56-1.62,3.61-.61.72-1.21,1.85-2.34,1.42-1.37-.53-.54-1.71-.33-2.56,1-3.91-1.72-5-4.49-5.82a5.42,5.42,0,0,0-7,3.2c-2.43,6.48-4.81,13-7.19,19.47-2.17,5.91-4.12,11.94-10.94,14.35a9,9,0,0,0-2.65,2c-.79.71-2.08,1.3-1.72,2.6s1.75,1.14,2.79,1.37c6.82,1.51,13.74.26,20.42.75,6.08,0,12,0,17.89,0a4.82,4.82,0,0,0,1.32-.14c-.15-1.73-.26-3.46-.34-5.19a5,5,0,0,1-1,1.31,5.14,5.14,0,0,1-3.8,1.34,21.66,21.66,0,0,1-4.45-.74,17.13,17.13,0,0,0-3.67-.71.81.81,0,0,1,0-1.61,17.08,17.08,0,0,1,3.75.68,24.58,24.58,0,0,0,3.71.73,4.23,4.23,0,0,0,3-.52,2.66,2.66,0,0,0,1.26-2.65,3.79,3.79,0,0,0-2.46-2.22.81.81,0,0,1,.42-1.56,6.34,6.34,0,0,1,3.13,2.32v-.07c-.55-1.59-1.11-3.18-1.65-4.78l-.34-1a2.06,2.06,0,0,0,1.3-1.65,77.91,77.91,0,0,1,1.64-8.59,2.39,2.39,0,0,0,.09-.63,2.31,2.31,0,0,0-.11-1.49,2.4,2.4,0,0,0-1.22-2,1.81,1.81,0,0,0-.4-.18c.49-.58,1-1.16,1.5-1.72C272.31,216.36,272.73,212.11,273.15,207.87Zm-29,39.26a.82.82,0,0,1-1.11.29l-.3-.14h0l-.16-.06a4.36,4.36,0,0,0-.59-.17l-.29-.06c.19,0-.08,0-.14,0a3.49,3.49,0,0,0-.46,0l-.2,0-.27.08-.06,0-.07,0a1.3,1.3,0,0,0-.26.14.55.55,0,0,0-.14.09l0,0-.1.07-.11.1a1.75,1.75,0,0,0-.23.24l-.11.11-.05.06a.83.83,0,0,1-1.1.29.81.81,0,0,1-.29-1.1,4.2,4.2,0,0,1,2.68-1.76,5.37,5.37,0,0,1,3.14.61A.82.82,0,0,1,244.1,247.13Zm11.3-28.19H261a.8.8,0,1,1,0,1.6H255.4a.8.8,0,1,1,0-1.6Zm-6.76,27c-.69.44-1.55,1-2.37.5-1.28-.79-.6-2.21-.87-3.13.2-2.12,0-4.79,2.29-5s1.21,2.68,1.93,4.07A2.64,2.64,0,0,1,248.64,245.91Zm3.42-15.23c-1.66-.09-3.53,0-3.34-2.06.23-2.42,2.46-2.87,4.41-2.92,1.42,0,3.89-.35,3.75,1.71C256.7,230,254.13,230.44,252.06,230.68Zm6.23,12.37c-3.29,0-5.15-1.87-5-5.4.1-2.1,1-3.87,3.44-4,2.17-.14,5.12,3.3,5.12,5.83C261.83,241.8,260.81,243.08,258.29,243.05Zm10.49-3.89c-.14.7-1.2.4-1.06-.29.6-3-.81-5.7-2.05-8.3-1.12-2.36-2.21-4.92-1.38-7.55.21-.67,1.27-.38,1.06.29-.85,2.69.6,5.3,1.73,7.66C268.31,233.56,269.36,236.25,268.78,239.16Z"/><path class="cls-1" d="M295.58,211c-3.54.79-2.52,3.31-2,5.58C294.37,214.68,293.78,212.44,295.58,211Z"/><path class="cls-1" d="M322.29,270.77l-2.28.83-1.62-35c-.09-1.78-.3-3.82-1.75-4.86a5.83,5.83,0,0,0-3.25-.78,79.52,79.52,0,0,0-17.95,1.5,1.9,1.9,0,0,0-1.24.6,1.87,1.87,0,0,0-.23,1.24q.24,6.53.49,13.06l1,25.18a2.44,2.44,0,0,0,.31,1.34,2.37,2.37,0,0,0,1.55.78c6.77,1.44,13.79.86,20.69.24a7,7,0,0,0,3.51-1A2.42,2.42,0,0,0,322.29,270.77ZM300.5,239.14V266a.55.55,0,0,1-1.1,0V239.14h-.31a.55.55,0,0,1,0-1.1h15a.55.55,0,0,1,0,1.1Zm14.13,27.72a.55.55,0,0,1-1.09,0V240.73a.55.55,0,0,1,1.09,0Z"/><path class="cls-1" d="M286.85,242.42a1.88,1.88,0,0,0-1.85-1.85l-5.3,0a10.45,10.45,0,0,0-2.74.12,2.89,2.89,0,0,0-2.08,2.67c-.08.83,0,1.69,0,2.53a12.26,12.26,0,0,0,.09,2.71,2.66,2.66,0,0,0,2.56,2,18.25,18.25,0,0,0,2.55-.28l6-.7a1.91,1.91,0,0,0,1.79-1.36,7.86,7.86,0,0,0-1.07-5.44A1.5,1.5,0,0,0,286.85,242.42Zm-7.06,1.87a10.12,10.12,0,0,1-1.23.33v-.36h1.33Z"/><path class="cls-1" d="M286.38,224.93a49.94,49.94,0,0,0-9.61.71,1.87,1.87,0,0,0-1.36,1.78c-.12,1.28-.23,2.55-.35,3.83a.66.66,0,0,0,0,.14,1.91,1.91,0,0,0,.33,2.13,9.06,9.06,0,0,0,6.21,2.55,20,20,0,0,0,3.19-.09,13.82,13.82,0,0,0,3.44-.56c2.61-.93,3.65-3.33,3.58-6,0-1.28-.07-2.76-1.09-3.68S287.74,225,286.38,224.93Zm0,4a2,2,0,0,0-.77-.28c.62,0,1.25,0,1.87.06l.55,0v0C287.52,228.79,287,228.84,286.42,228.9Z"/><path class="cls-1" d="M290.81,165.81c-3.38-1-6.76-.4-10.12.4-1.29.31-2.84.2-3.08,2s.62,3,2.11,3.93c3,2,6.4,2.3,9.49,2.72,3-.1,5.13-.38,5.57-4C295.19,167.37,293.21,166.51,290.81,165.81Z"/><path class="cls-1" d="M264.84,174.88c1.35.06,2.7.07,4.05,0a4.19,4.19,0,0,0,4.06-3.12c1.74-5,.22-6.85-6-7.06h-1.84c-4.83,0-6.27,1.11-6.38,5C258.66,173.8,259.66,174.67,264.84,174.88Z"/><path class="cls-1" d="M330.74,255.81c-3.33,0-3.34,5.2,0,5.19q23.85-.13,47.68-1.44c3.32-.18,3.34-5.37,0-5.18Q354.6,255.69,330.74,255.81Z"/><path class="cls-1" d="M292.45,194.15a2.35,2.35,0,0,0-2-.57c-1.09,0-2.19,0-3.29,0-6.38.1-6.31.21-11.55,3.53-2.38,1.51-1.89,2.85-.34,4.37,3.26,3.19,11.14,4.42,15.3,2.45C292.84,202.85,294.17,196,292.45,194.15Z"/><path class="cls-1" d="M275.71,212.63h0l-.12.22c-.21.39-.47.76-.72,1.14a6.19,6.19,0,0,0-1.09,2.25,3.33,3.33,0,0,0,1.05,3.22,6.74,6.74,0,0,0,3.31,1.26c1.34.26,2.69.46,4.05.61a21.35,21.35,0,0,0,3.66.21,5.49,5.49,0,0,0,5.05-3.74,12.25,12.25,0,0,0,0-6.36,1.85,1.85,0,0,0-1.78-1.36,41.73,41.73,0,0,0-9.94,1.39,1.86,1.86,0,0,0-1.55-.88,1.89,1.89,0,0,0-1.85,1.85C275.84,212.08,275.75,212.48,275.71,212.63Zm10.09,4.89.68.18a2.53,2.53,0,0,1-.47.13l-.26,0A1.88,1.88,0,0,0,285.8,217.52Zm-8.19-1c.07-.12.15-.24.23-.36a4.43,4.43,0,0,0,.46.29,2.26,2.26,0,0,0,0,.52l-.57-.13-.25-.05Z"/><path class="cls-1" d="M289,178.94c-2.45,0-4.91-.07-7.37,0-3.6.1-6.82,6.11-5,9.25.59,1,1.46,1.08,2.52,1,2.93-.12,5.87-.28,8.79-.13,5.74.27,5.74.35,5.93-5.26C294.8,178.74,293.81,178.89,289,178.94Z"/><path class="cls-1" d="M292.18,148.18c0-.06,0-.13,0-.2v-.08a5.17,5.17,0,0,0-.16-.68,2,2,0,0,0-.19-.47c-.09-.17-.19-.33-.29-.49l-.06-.06,0-.06-.17-.18a1.54,1.54,0,0,0-.19-.17l-.06-.06-.06,0a2.14,2.14,0,0,0-.38-.23l-.11-.06h0l-.19-.07-.22-.06-.12,0a3,3,0,0,0-.42,0h-.1l-.19,0a1.41,1.41,0,0,0-.22.06l0,0-.08,0-.17.1-.13.1a4,4,0,0,0-.3.28l0,.06,0,.07-.12.19-.14.28a1.15,1.15,0,0,1-.06.17q-.09.28-.15.57c0,.16,0,.13,0,.27a2.34,2.34,0,0,0,0,.38c0,.21,0,.43,0,.64a3.57,3.57,0,0,1,.66,0,4.56,4.56,0,0,0,.74,0v-.16c1,0,2.1-.08,3.14-.06Z"/><path class="cls-1" d="M296.59,144.68c-.65-5-10-8.81-13.93-5.7-.75.59-1.84,1.46-1.39,2.39,1.08,2.25.51,5,1.83,6.91.71,1,2.08.61,3.45.36h0a5,5,0,0,1,.71-3.24,3,3,0,0,1,4.05-.76,4.4,4.4,0,0,1,1.95,3.78h.17C296.63,148.89,296.9,147,296.59,144.68Z"/><path class="cls-1" d="M263.35,161.6c3.3.16,6.62.05,9.92-.12,1.27-.06,1.57-1.23,2-2.34,2.71-7.66,2.67-7.75-5.27-7.7-6.44,0-9.24,2.35-8.82,7.18C261.29,160.13,261.83,161.52,263.35,161.6Z"/><path class="cls-1" d="M277.48,141.17c-.17-2.17-1.15-3.08-3.26-3-1.1.05-2.2,0-3.58,0-1.75.61-4.53-1.48-5.86,1.64-2.14,5-1.61,6,3.83,6.82a30,30,0,0,0,3.28.23C278,147.18,278,147.18,277.48,141.17Z"/><path class="cls-1" d="M292.3,159.48a3,3,0,0,0-.38-1.21,2.51,2.51,0,0,0-1.59-1.16,3.66,3.66,0,0,0-2.12.09,3.93,3.93,0,0,0-1.92,1.34,4.14,4.14,0,0,0-.75,2.05c1.08,0,2.19,0,3.26,0v-.07h3.47A4.88,4.88,0,0,0,292.3,159.48Z"/><path class="cls-1" d="M296,155.17c0-2.47-1.2-3.69-3.52-3.78a68.56,68.56,0,0,0-8.11,0,4.35,4.35,0,0,0-4,4.2,4.25,4.25,0,0,0,2.9,4.66,8.51,8.51,0,0,0,1.14.22,5.1,5.1,0,0,1,1.27-3,5,5,0,0,1,5.26-1.37,3.63,3.63,0,0,1,2,1.87,4.79,4.79,0,0,1,.36,2.45C295.85,160.2,296.07,159.06,296,155.17Z"/><path class="cls-1" d="M281,232.32l.37,0a.56.56,0,0,1,0,.08Z"/><path class="cls-1" d="M288,228.1s0,0,0,.09C288,228.14,288,228.11,288,228.1Z"/><path class="cls-1" d="M285.27,255.26a8.9,8.9,0,0,0-.56,1.08Z"/><path class="cls-1" d="M278.54,243.63a.26.26,0,0,1,0-.14s0,.08,0,.11S278.54,243.62,278.54,243.63Z"/><path class="cls-1" d="M287.56,213.87s0,.08,0,.12l-.27-.11Z"/><path class="cls-1" d="M378.25,132.52c5.37-.24,10.72-.54,16.07.34a.37.37,0,0,1,.42-.4,19.09,19.09,0,0,1,5.46,1.35l.38.16c0-.11-.05-.22-.08-.33a.33.33,0,0,0-.07-.13,2,2,0,0,0,0-1.16l-.18,0A58.25,58.25,0,0,0,378.25,132.52Z"/><path class="cls-1" d="M398.14,134.73a3.55,3.55,0,0,0,.45,1.2.67.67,0,0,0,.75.31.73.73,0,0,0,.36-.26l0,.17a.68.68,0,0,0,.74.48.67.67,0,0,0,.58-.66l0-.18h0v0a3.5,3.5,0,0,0-.13-.56l0-.11a27,27,0,0,0-3.89-1.33A12.66,12.66,0,0,0,398.14,134.73Z"/><path class="cls-1" d="M370.75,124.58a9.9,9.9,0,0,0-2.26,5,4.21,4.21,0,0,0,1.53,3.7c-.06-.19-.12-.38-.19-.58,1.62.06,3.23,0,4.85,0a.39.39,0,0,1,.23-.18,42.66,42.66,0,0,1,7-1.51,62.48,62.48,0,0,1,18.16.41,16.51,16.51,0,0,1-1.21-2.26,1.92,1.92,0,0,0-.14-.33,23.36,23.36,0,0,0-4-.85,56.84,56.84,0,0,0-15.08-.32,23,23,0,0,0-6.39,1.49c-1.28.54-2.73,1.4-3.05,2.86-.13.57-1,.33-.87-.24.41-1.86,2.25-2.92,3.9-3.58a25.57,25.57,0,0,1,6.81-1.47,55.9,55.9,0,0,1,8.18-.23,55.26,55.26,0,0,1,7.48.75c.8.14,1.63.29,2.45.5-1.24-1.93-3.37-3.12-5.16-4.29l-1,.1a.38.38,0,0,1-.31.33,37.26,37.26,0,0,1-4.7.59c-5.49.4-12.48.11-16.23,4.93-.35.45-1-.19-.63-.64a10.48,10.48,0,0,1,3.74-3c3-1.47,6.35-1.79,9.68-2A.93.93,0,0,1,384,122c2.29,0,4.61,0,6.92-.25a3.68,3.68,0,0,1-.84-1.36,13.7,13.7,0,0,0-1.57-3.5,35.85,35.85,0,0,0-6.1,1C378.09,119,373.57,121,370.75,124.58Z"/><path class="cls-1" d="M393.88,146.18a5.59,5.59,0,0,1,1.91-.87,5.8,5.8,0,0,1,2.09-.15.68.68,0,0,0,.67-.67.69.69,0,0,0-.67-.67,7.26,7.26,0,0,0-4.68,1.2.7.7,0,0,0-.24.92A.69.69,0,0,0,393.88,146.18Z"/><path class="cls-1" d="M399.09,258.07c-4.9,6.47-11.88,11.12-19.27,14.48,6.37-1.19,12.08-4.7,17.08-8.82a37,37,0,0,0,7.09-7.39,49,49,0,0,0,4.43-8.72c2.81-6.56,5.63-13.19,7.39-20.09q-5.32,10.16-10.63,20.33A71.48,71.48,0,0,1,399.09,258.07Z"/><path class="cls-1" d="M377.75,168.9c1.41,1.25,3.89.26,5.33-.42a15.24,15.24,0,0,0,5-3.51.39.39,0,0,1,.6,0,7,7,0,0,1,1.24-.66l.28-.18a.89.89,0,0,1,.64-.1,5.43,5.43,0,0,1,.58-.13,5.24,5.24,0,0,1,4.46,1.77l1.29.93a28.23,28.23,0,0,0,2.95,1.87,7.08,7.08,0,0,0,2.84,1,.75.75,0,0,0,.15,0c-1.26-3.36-2.76-6.89-6.53-7.77-1.06-.25-2.12-.47-3.19-.62a10,10,0,0,0,1.57-.62.74.74,0,0,0,.35-.28.79.79,0,0,0,0-.62,29.82,29.82,0,0,1-1.65-9.21.74.74,0,0,0,.54-.32l.15-.19.22-.22.22-.19.1-.07,0,0a1.15,1.15,0,0,0,0,.26,1.43,1.43,0,0,0,.63.85,1.22,1.22,0,0,0,1.2,0,1.4,1.4,0,0,0,.64-.83,1.34,1.34,0,0,0,0-.66.81.81,0,0,0-.07-.22h0l.14,0,.33.09.17.06.08,0a1.59,1.59,0,0,1,.29.15c.75.41,1.43-.74.68-1.16a4.76,4.76,0,0,0-6.07,1.41.67.67,0,0,0,.24.91.55.55,0,0,0,.34.08,19.25,19.25,0,0,0,.56,7.09,2.69,2.69,0,0,1,0,2.1,2.08,2.08,0,0,1-1.22.77,6.34,6.34,0,0,1-4.47-.36l0,0a3.62,3.62,0,0,0,1.31,1,10.39,10.39,0,0,0-7.11,3.73c-2.26,2.54-3.81,3.83-5.24,3.91A2.07,2.07,0,0,0,377.75,168.9Z"/><path class="cls-1" d="M375.18,246.91c.24,1,.47,2,.68,3a135.31,135.31,0,0,0,30.75-55.23A167.89,167.89,0,0,1,375.18,246.91Z"/><path class="cls-1" d="M377.07,256.44c.19,1.34.35,2.69.48,4,3.95-3.37,7.3-7.71,10.43-11.89,4.33-5.81,8.7-11.67,11.74-18.24a98,98,0,0,0,5.58-17.27l.06-.79A152.39,152.39,0,0,1,377.07,256.44Z"/><path class="cls-1" d="M421.19,179.06l-1.17-2c.06,12.53-.74,25-1.54,37.55A61.81,61.81,0,0,0,421.19,179.06Z"/><path class="cls-1" d="M417.54,224.21,417,222c-.3,1.86-.7,3.7-1.16,5.53Z"/><path class="cls-1" d="M387,145.37a9,9,0,0,0-8.17-.09c-.77.39-.1,1.54.67,1.16a7.55,7.55,0,0,1,6.82.09C387,146.93,387.72,145.77,387,145.37Z"/><path class="cls-1" d="M387.18,148.08a7,7,0,0,0-8.17,1.14c-.62.61.33,1.55.94.95A5.51,5.51,0,0,1,381.9,149s0,.1,0,.14a1.3,1.3,0,0,0,.19.37,1.61,1.61,0,0,0,.39.39l.07,0,.11.06.22.07h.24l.24,0h.06l0,0,.06,0,.16-.07a1.27,1.27,0,0,0,.4-.4,1.24,1.24,0,0,0,.15-.52,1,1,0,0,0,0-.34,5.46,5.46,0,0,1,2.3.63C387.26,149.65,387.93,148.5,387.18,148.08Z"/><path class="cls-1" d="M415.37,176.53c.23,1,.43,2,.61,3A12.1,12.1,0,0,0,415.37,176.53Z"/><path class="cls-1" d="M403.37,191c3-2.33,4.85-5.89,6.06-9.5.82-2.43,1.27-5.46-.55-7.27a1.39,1.39,0,0,0-1.19-.5.63.63,0,0,0-.4.27l0-.58c0,.22,0,.44,0,.66a.56.56,0,0,0,0,.56A47.64,47.64,0,0,1,403.37,191Z"/><path class="cls-1" d="M408.59,219.79A58.9,58.9,0,0,0,416,179.54c.07.85.09,1.71.08,2.55C415.9,194.94,412.23,207.46,408.59,219.79Z"/><path class="cls-1" d="M424.87,213.76c1.47-5.61,2.93-11.22,4.3-16.86,1-4.23,2-8.84.17-12.8a26.92,26.92,0,0,1-1.48,8.52l-.9-5.18c-.41-2.41-1-5.05-2.87-6.58a16.77,16.77,0,0,0,1.5,7.24A88.65,88.65,0,0,1,424.87,213.76Z"/><path class="cls-1" d="M412.63,257.74c-6.38,10.21-16.38,18.77-28.27,20.69a45.72,45.72,0,0,0,40.23-51.7l.6-2.69C422.27,235.72,419,247.53,412.63,257.74Z"/><path class="cls-1" d="M436.77,216.76a17.75,17.75,0,0,1-7.93,2.39c2.72-2.05,5.66-4.43,6.21-7.79a22.5,22.5,0,0,1-8.8,6.51l.37.17c-1.19,2-.68,4.65.62,6.58a18.57,18.57,0,0,0,5.19,4.58l3.64,2.48-7.81-9.57a17.92,17.92,0,0,0,5.16-1.39A6,6,0,0,0,436.77,216.76Z"/><path class="cls-1" d="M441.83,216.38a7.4,7.4,0,0,1-.41-2.35l-.06.2q-1,3.53-2.06,7.05a2.64,2.64,0,0,0,2.33-1.11c2.36,5.23,2.95,11.45,6.87,15.63Q444.81,226.21,441.83,216.38Z"/><path class="cls-1" d="M434.69,198.84l.08-1.69a30.57,30.57,0,0,1-6.41,16.13,15.38,15.38,0,0,0,8.4-8.72,6,6,0,0,0,.41-3.51A2.76,2.76,0,0,0,434.69,198.84Z"/><path class="cls-1" d="M403.83,171.35c-.13-.33-.25-.68-.38-1h-.13a9,9,0,0,1-.47,4.93c-.6,1.66-1.47,3.22-2,4.9-.67,2-.37,4.16-.19,6.25a15.49,15.49,0,0,1-.53,6.46c-.2.54-1.06.31-.87-.24a15.13,15.13,0,0,0,.48-6.42,16,16,0,0,1,.14-6c1-3.29,3.4-6.3,2.55-9.9,0,0,0-.05,0-.08a8.93,8.93,0,0,1-2.55-.92,30.93,30.93,0,0,1-3.83-2.48.86.86,0,0,1-.26.24.8.8,0,0,1-.76.47h-2.14a28,28,0,0,1,1.2,3.32,5.8,5.8,0,0,0,2.32,3.17c.49.31,0,1.08-.46.77a6.55,6.55,0,0,1-2.6-3.35,27.81,27.81,0,0,0-1.43-3.85s0,0,0-.06H391a.39.39,0,0,1,0,.19c-.29,2.44.3,5.08-1.12,7.26-.31.49-1.09,0-.77-.45,1.31-2,.72-4.55,1-6.81a.53.53,0,0,1,.06-.19h-1a.42.42,0,0,1-.07.5,18.05,18.05,0,0,0-2.29,3.73,5.37,5.37,0,0,1-3.54,2.73c-.57.11-.81-.75-.24-.87a4,4,0,0,0,1.95-.95,6.06,6.06,0,0,0,1.19-1.61,20,20,0,0,1,2-3.32.9.9,0,0,1-1.2-.59c-.33.24-.66.48-1,.7-1.9,1.25-4.31,2.56-6.66,2.46a3.05,3.05,0,0,1-3-1.95,6,6,0,0,1-2-1.51c.38,2,.92,3.9,2.68,5.05.48.32,0,1.1-.45.78a7.52,7.52,0,0,1-3-5.13c-.13-.68-.25-1.38-.4-2.07-.5-.64-1-1.35-1.62-2.18a6.5,6.5,0,0,0-1.57-1.57c.44,1.25.7,2.57,1,3.86.49,2,1.14,4,2.86,5.26.47.33,0,1.11-.45.77-3.47-2.49-3-7.07-4.68-10.62-.21-.1-.43-.18-.64-.26a20.77,20.77,0,0,0,.52,6.24,23.73,23.73,0,0,0,2.6,6.14.45.45,0,0,1-.78.46,25.08,25.08,0,0,1-2.69-6.36,22,22,0,0,1-.54-6.76,2.42,2.42,0,0,0-.36-.1,4.64,4.64,0,0,0,1.74-2.21.5.5,0,0,0,0-.34,1.72,1.72,0,0,0,.67-.95.41.41,0,0,1-.22-.18,38.23,38.23,0,0,1-2.51-5.39.45.45,0,0,1,.32-.55.46.46,0,0,1,.55.31c.35.87.7,1.73,1.08,2.58a8.35,8.35,0,0,1,.05-3.3c-.32-.56-.63-1.12-1-1.66a11.05,11.05,0,0,0-2.33-2.81c-.44-.37.2-1,.64-.64a12.3,12.3,0,0,1,2.42,2.91l.5.87c.09-.41.18-.83.26-1.25s.15-.73.23-1.09a.46.46,0,0,1-.29-.3,8.33,8.33,0,0,0-1.32-2.5,4.69,4.69,0,0,0-.42-.47,2.7,2.7,0,0,0-.36-.3.76.76,0,0,0-.19-.12l-.1-.06-.05,0-.19-.06h-.11a.45.45,0,0,1,0-.9,3,3,0,0,1,2,1.26,8.65,8.65,0,0,1,1.29,2.17c.2-.92.41-1.84.59-2.77a8,8,0,0,0-4.48-5.1c-.52-.24-.07-1,.46-.78a9,9,0,0,1,4.32,4.15,20.68,20.68,0,0,0,.2-4.52,8.19,8.19,0,0,1-5.54-5.45c-.14-.56.73-.8.87-.24a7.13,7.13,0,0,0,4.56,4.7c0-.27-.09-.53-.14-.8a5.23,5.23,0,0,1-2.78-5.17c.45-4.16,3.9-7.47,7.31-9.49a30.39,30.39,0,0,1,13-3.85,9.84,9.84,0,0,0-1.14-1.18c-.78,0-1.56,0-2.34.12-6.94.71-14.37,4.12-17.45,10.73-.24.53-1,.07-.77-.45a16.28,16.28,0,0,1,3.55-4.92A24.94,24.94,0,0,1,385.59,114c-2.62-1.67-5.9-2.05-9.28-2.65a.18.18,0,0,0-.1,0,1,1,0,0,1-.18.1c-.26.17-.58.47-.91.34-1.17.38-2.33.82-3.46,1.3a.47.47,0,0,1,0,.87,16.42,16.42,0,0,0-4.28,2.59,22.15,22.15,0,0,0-7.71,15.64c0,.57-.93.57-.9,0a22.54,22.54,0,0,1,.9-5.28,22.08,22.08,0,0,1,9.44-12.66c-.69.34-1.37.7-2.05,1.07a.89.89,0,0,1-1.24-.36,14.32,14.32,0,0,0-1.21,1.13,25.94,25.94,0,0,0-5.09,8.35,34.33,34.33,0,0,0-2.2,8,4,4,0,0,1,1.5,3.3,7.84,7.84,0,0,0,2.74,2.35.45.45,0,0,1-.45.78,8.5,8.5,0,0,1-2.31-1.75c0,.22,0,.44,0,.66a8.25,8.25,0,0,0,2.42,3.48.47.47,0,0,1,.16.62.45.45,0,0,1-.61.16,7.55,7.55,0,0,1-1.74-1.87,25.54,25.54,0,0,1-.35,4,14.24,14.24,0,0,0,1.64,2.89.45.45,0,1,1-.77.46c-.36-.54-.72-1.08-1-1.64-.16,2.87.59,5.4,5.64,6.16,1,.16,1.14,1-.13,1.57-1.65.75-1.19,2.9-.13,2.42,2.1-.94,2.4,1.38,3.31,2l-.18.31-.12.17,0,0,0,0-.07.08a2.44,2.44,0,0,1-.27.29l-.29.26-.06.05-.16.11a3.9,3.9,0,0,1-.35.19l-.15.07-.1,0a.69.69,0,0,0-.4.31.38.38,0,0,0,0,.15,12.65,12.65,0,0,0-1.36,0,4.94,4.94,0,0,1-2.33-2.21,4.87,4.87,0,0,1,.1-4.53c.41-.75-.74-1.43-1.16-.67a6.29,6.29,0,0,0-.15,5.77,6,6,0,0,0,1.79,2.15c-1.3,1.13-.62,3.92-.41,5.63.09.76.22,1.51.38,2.24-.1-.49-.23-1-.36-1.45a8.08,8.08,0,0,1-4.27,8c.08.23.17.45.25.68a6,6,0,0,0,2.72-.82,4.87,4.87,0,0,0,1.93-3.93,9.28,9.28,0,0,0-.2-2.17c1.56,6.66,5.79,12.22,9,18.13a125.58,125.58,0,0,0,8.4,13.43l-.66-1.15q-2.22-4-4.46-7.94c-1-1.76-2-3.53-2.89-5.37a31.88,31.88,0,0,1-1.78-5.48,27.64,27.64,0,0,0-2-5.29c-.68-1.35-1.53-2.6-2.32-3.88-1.62-2.62-2.8-5.4-2.21-8.53.11-.57,1-.33.87.24-.67,3.52,1.25,6.46,3,9.3a33,33,0,0,1,2.14,4,34.89,34.89,0,0,1,1.69,5.28,26.46,26.46,0,0,0,2.14,5.5c.88,1.7,1.83,3.36,2.79,5,1.42,2.46,2.77,5,4.17,7.44.69,1.21,1.4,2.41,2.18,3.55.22.33.46.66.71,1a.2.2,0,0,1,0-.07c-.11-1.64,0-3.29-.15-4.93a19.64,19.64,0,0,0-1.28-5.15c-1.19-3.35-2.58-6.6-3.14-10.13-.09-.57.78-.81.87-.24a31.39,31.39,0,0,0,1.54,5.8c1.14,3.21,2.68,6.38,2.91,9.81.14,1.95,0,4,.27,6a2.45,2.45,0,0,0,.35.29.48.48,0,0,1-.11.83c0,.14.08.27.12.4.35.43.69.86,1,1.28a3.89,3.89,0,0,1,.53.94,14,14,0,0,0,.4,1.67,12,12,0,0,0,.5,1.5,128.66,128.66,0,0,0-13.23,23.86q1.56-4.87,3.11-9.73c.08-.22.15-.45.24-.68a6.55,6.55,0,0,1-1.45.83,14,14,0,0,1-4.76.86c-.64,0-1.28,0-1.92,0l.27.65c.11.25.2.5.31.75a3.5,3.5,0,0,1,1.58.24c1.63.75,1.78,3,1.68,4.74l-.17,3.25c.4,1.15.77,2.31,1.13,3.48q1.47-2.82,2.74-5.73c2.45-5.65,4.39-11.61,8.05-16.55,1-1.3,2-2.51,3.1-3.73a.46.46,0,0,1-.26-.64c.11-.2.2-.4.29-.61h0s0,0,0,0c.17-.38.32-.76.45-1.15a.14.14,0,0,1-.09,0h-.08a.39.39,0,0,1-.16-.1,6.3,6.3,0,0,1-1.79-3.27c-.61-2.6-.24-5.36,0-8s.5-5.44-.42-7.95c-.2-.55.67-.78.87-.24a12.6,12.6,0,0,1,.64,4.13c0,2.72-.39,5.41-.47,8.12-.07,2.25.06,4.84,1.77,6.5a19.19,19.19,0,0,0,.65-5,45.38,45.38,0,0,1,.41-7.73c.1-.57,1-.33.87.24a51.19,51.19,0,0,0-.39,8c0,.45,0,.9-.07,1.34h0a18.74,18.74,0,0,1-.39,2.6,1.24,1.24,0,0,1,0,.16,11.72,11.72,0,0,1-.32,1.16c0,.08-.05.16-.07.24-.11.32-.24.65-.37,1l-.12.29a1.63,1.63,0,0,0,.3-.07.65.65,0,0,0,.87-.25l.53-1.17a9.13,9.13,0,0,0,1.71-2.88.39.39,0,0,1-.34.14.4.4,0,0,1-.2-.09h0a.65.65,0,0,1-.15-.18v0a.45.45,0,0,1,0-.2.43.43,0,0,0,0-.05.43.43,0,0,1,.1-.23,4.81,4.81,0,0,0,.34-.49c0-.06.06-.13.1-.19s.11-.21.16-.32l.08-.26a2,2,0,0,0,.08-.26c0-.1,0-.2.06-.3s0-.16,0-.24,0-.22,0-.34,0-.13,0-.2,0-.26,0-.39a1,1,0,0,0,0-.17c0-.14,0-.29,0-.44a.49.49,0,0,0,0-.12c0-.18,0-.37-.07-.55h0s0-.07,0-.1a8.57,8.57,0,0,1,.09-4.09c.38-1.15,1-2.19,1.43-3.3a7.17,7.17,0,0,0,.43-4c-.1-.57.77-.81.86-.24a8,8,0,0,1-.35,4.28c-.44,1.19-1.11,2.28-1.5,3.49a5.69,5.69,0,0,0-.24,2.27h0c0,.37.07.75.12,1.13s.11.77.16,1.15a8,8,0,0,1,0,1l0-.12a27.24,27.24,0,0,1,1.94-2.83c7.35-6.21,5.63-15.89,8-23.91C403.29,176.61,404.7,173.59,403.83,171.35Zm-22.38,29c.14.56-.73.8-.87.24a49,49,0,0,0-1.93-5.62A40.21,40.21,0,0,1,377,190.2c-.39-1.54-.54-3.11-.79-4.67a20.63,20.63,0,0,0-.87-3.63,19.44,19.44,0,0,0-2.14-4.06c-.32-.49.45-.94.77-.45a19,19,0,0,1,2.33,4.55c.93,2.75.93,5.7,1.69,8.49C379,193.82,380.58,197,381.45,200.37Zm1-13.29a13,13,0,0,1-2.34-5.71,55.91,55.91,0,0,1-1-6.57c-.06-.58.84-.57.9,0A56.07,56.07,0,0,0,381,181a12.64,12.64,0,0,0,2.14,5.47C383.46,186.89,382.83,187.53,382.46,187.08Zm3.21,3c-.17.55-1,.31-.86-.24a13.9,13.9,0,0,0,.08-6.32,17.17,17.17,0,0,1-.08-6.35c.12-.57,1-.32.86.24C384.74,181.61,387,185.86,385.67,190.05Zm4.53-9.39c-2.55,4.27,1.4,9-.7,13.37-.25.52-1,.07-.78-.45,1-2.14.36-4.49-.05-6.69s-.49-4.6.76-6.69A.45.45,0,0,1,390.2,180.66Zm3.91,4.45a17,17,0,0,1,0,4.94c-.12.57-1,.33-.87-.24.69-3.28-1.1-6.89.75-10,.3-.5,1.08,0,.78.45A7.87,7.87,0,0,0,394.11,185.11Zm3.18,1.77a20.74,20.74,0,0,0-.38,4.58c0,1.23.15,2.46.13,3.7a10.38,10.38,0,0,1-.63,3.58,13,13,0,0,1-2.4,3.83c-.38.44-1-.2-.64-.64a11.32,11.32,0,0,0,2.34-3.88,10.84,10.84,0,0,0,.43-3.4c0-1.23-.12-2.46-.13-3.69a20.94,20.94,0,0,1,.41-4.32C396.54,186.08,397.41,186.32,397.29,186.88Zm.89-3.87c-1-3.19,1.27-6.29.35-9.5a.45.45,0,0,1,.87-.24,9.61,9.61,0,0,1-.11,4.85,8.67,8.67,0,0,0-.24,4.65C399.22,183.33,398.36,183.56,398.18,183Z"/><path class="cls-1" d="M351,125.79a17.41,17.41,0,0,1,.38-2.49c1.38-5.85,5.94-10.22,11.11-13,.51-.28,1,.5.45.77a26.85,26.85,0,0,0-4.11,2.64,19.2,19.2,0,0,0-5.33,6.35,15.68,15.68,0,0,0-1.65,7.33,2.19,2.19,0,0,0,.95.74,9.36,9.36,0,0,0,.39.9,23.86,23.86,0,0,1,.73-3.93c1.57-5.74,5.18-11.46,10.68-14.1.52-.25,1,.53.45.78a15.6,15.6,0,0,0-4,2.75A23.51,23.51,0,0,0,354,130.09a.48.48,0,0,1,0,.18,4.09,4.09,0,0,0,1.46,1.13,8.23,8.23,0,0,1,1,.52,33.15,33.15,0,0,1,.79-3.66,35.17,35.17,0,0,1,4.12-9.47,16,16,0,0,1,6.75-6.33.46.46,0,0,1,.44,0,47.54,47.54,0,0,1,5.73-2.35c-1.54-4.4-7.93-5.77-12.67-3.69a8,8,0,0,0-1.44.82,19.8,19.8,0,0,0-4.22,2,13.07,13.07,0,0,0-5.3,6.47c-1.07,3.09-.66,6.5.23,9.64C350.92,125.55,351,125.67,351,125.79Z"/><path class="cls-1" d="M359.4,182.81c3.69,1.19,7.35,2.5,11,3.92a22.47,22.47,0,0,0-2.76-4.32,3.08,3.08,0,0,0-1-.89,3.51,3.51,0,0,0-1.44-.26l-6.14-.19C359.16,181.65,359.29,182.23,359.4,182.81Z"/><path class="cls-1" d="M396.13,149.26h0l0,.05s0,0,0-.05h0v0l0,0h0v0l0,0Z"/><polygon class="cls-1" points="396.17 149.32 396.17 149.32 396.17 149.31 396.17 149.31 396.17 149.32"/><path class="cls-1" d="M448.13,236.4c-4.16-.9-8.54.57-12,3s-6.2,5.8-8.87,9.11a16.79,16.79,0,0,1,20.86-13"/><path class="cls-1" d="M428.32,248.68a16.47,16.47,0,0,1,20.2,13.73c1.9-4.68-1.08-10.24-5.46-12.76s-9.69-2.7-14.73-2.43"/><path class="cls-1" d="M436,243.17a16,16,0,0,1,17.38,5.54,53.65,53.65,0,0,0-19.68-4.77,1.44,1.44,0,0,1,1.76-.89"/><path class="cls-1" d="M411.67,278a1.5,1.5,0,0,1,.66-.42,1.37,1.37,0,0,1,1.31.41h2.62a12.25,12.25,0,0,1,.15-2.57,8.05,8.05,0,0,1,1.2-2.42l13-20.06.32-1.45q-5.94,7.41-11.87,14.84c-2.92,3.64-6,7.39-10.12,9.49-1.86.94-3.88,1.53-5.78,2.36C406,278.05,408.85,278,411.67,278Z"/><path class="cls-1" d="M447.3,262.73Q436,270.09,424.48,277l22-17.85,1.6,3"/><path class="cls-1" d="M299.59,70.66c.69.12,1.21,1.24.49,1.67s-1.61-.25-1.4-1c.33-1.13,1.78-1,2.49-.36a3.68,3.68,0,0,1,1.18,2.69A4.17,4.17,0,0,1,299,78a4.31,4.31,0,0,1-2.94-.5c-.39-.24-.94-.69-.87-1.2s.77-.6,1.18-.63c1.45-.12,2.92-.12,4.38-.17l4.74-.18c.64,0,.64-1,0-1l-6.11.23c-1,0-1.92,0-2.87.11a2.93,2.93,0,0,0-1.82.58c-1.26,1.15.05,2.74,1.2,3.3a5.44,5.44,0,0,0,4.19.2,5.26,5.26,0,0,0,2.86-7,3.31,3.31,0,0,0-3.36-2.16c-1.23.23-2.34,1.54-1.72,2.79a2,2,0,0,0,3.25.43,2,2,0,0,0-1.22-3c-.62-.11-.9.86-.26,1Z"/><path class="cls-1" d="M305,70.64v7.67a.5.5,0,0,0,1,0V70.64a.5.5,0,0,0-1,0Z"/><circle class="cls-4" cx="301.23" cy="75.17" r="9.97"/><path class="cls-1" d="M237.72,103.69a4.47,4.47,0,0,1-.82-.08,4.91,4.91,0,0,1-3.45-2.84,4,4,0,0,1,1.1-5.18,3.68,3.68,0,0,1,4.8,0A2.17,2.17,0,0,1,240,98a3.08,3.08,0,0,1-2.39,2.09l-.12-.9a2.22,2.22,0,0,0,1.65-1.47,1.26,1.26,0,0,0-.36-1.4,2.78,2.78,0,0,0-3.64,0,3.09,3.09,0,0,0-.84,4,4.07,4.07,0,0,0,2.8,2.37c2.36.43,5.14-1.67,6.58-3,15.94-14.18,32-23.13,46.74-26.27v3.4c-14.62,3.11-30.31,9.48-46.13,23.55C242.53,102,240.08,103.69,237.72,103.69Z"/><path class="cls-1" d="M290.67,78.48a15.84,15.84,0,0,1,.09-6.68c.12-.57-.75-.81-.88-.24a17.16,17.16,0,0,0-.09,7.17c.11.57,1,.33.88-.25Z"/><path class="cls-1" d="M365.91,103.69a4.56,4.56,0,0,0,.82-.08,4.91,4.91,0,0,0,3.45-2.84,4,4,0,0,0-1.1-5.18,3.7,3.7,0,0,0-4.81,0,2.17,2.17,0,0,0-.6,2.35,3.08,3.08,0,0,0,2.39,2.09l.12-.9a2.2,2.2,0,0,1-1.65-1.47,1.26,1.26,0,0,1,.36-1.4,2.78,2.78,0,0,1,3.64,0,3.09,3.09,0,0,1,.84,4,4.07,4.07,0,0,1-2.8,2.37c-2.36.43-5.14-1.67-6.59-3C344,85.59,328,76.64,313.25,73.5v3.4c14.62,3.11,30.31,9.48,46.13,23.55C361.1,102,363.55,103.69,365.91,103.69Z"/><path class="cls-1" d="M313,78.48a16,16,0,0,0-.09-6.68c-.13-.57.75-.81.88-.24a17.32,17.32,0,0,1,.09,7.17c-.12.57-1,.33-.88-.25Z"/><path class="cls-1" d="M235.23,192.33l-.51-.4a177,177,0,0,0-9,27.77c-1.42,6.06-2.52,12.64-1.59,18.57A33,33,0,0,0,233,235c-.81-7.28-.41-14.84.08-22.3.24-3.62.49-7.24,1-10.82a67.94,67.94,0,0,1,2-9.12A3.44,3.44,0,0,1,235.23,192.33Z"/><path class="cls-1" d="M228.38,197.07a105.15,105.15,0,0,1,4.49-9.65,3.77,3.77,0,0,1-.77-1.4l-.11-.81a84.66,84.66,0,0,0-13.39,32.45c-.17.9-.74,2.08-1.29,1.61a1.67,1.67,0,0,1-.31-1.11c-.07-1.27-.13-2.54-.2-3.81-1.6,1.1-2.58,3.76-2.25,6.08-.87.25-1-1.75-1.76-2.28-.95-.67-2.08,1.34-3.14,1-.89-.26-1.09-1.89-1.84-2.56a20.75,20.75,0,0,0-.68,13.11,17.57,17.57,0,0,0,6.32,9.5,26.13,26.13,0,0,1-.39-12.11c.19,1.61.38,3.22.58,4.83a46.09,46.09,0,0,0,1.59,8.6l.53-.07a13.76,13.76,0,0,1,1.4-7.12,38.77,38.77,0,0,1,.84,6.83l3.81-.49a62.43,62.43,0,0,1-.5-14.93A94.78,94.78,0,0,1,228.38,197.07Z"/><path class="cls-1" d="M230.74,179.51c-.68.62-1.34,1.3-2,2a99.64,99.64,0,0,0-7.45,9.16c-1.44,2-2.92,4.36-2.91,7.07l8.07-11.4a54.08,54.08,0,0,1,4.31-5.59c.15-.15.3-.29.44-.44A3.86,3.86,0,0,1,230.74,179.51Z"/><path class="cls-1" d="M230.18,176.32c-6.91,4.87-13,12.23-17.36,21.09q8.93-10,17.29-21"/><path class="cls-1" d="M222,177.29c-4.23,4.63-7.28,10.94-10.25,17.14a86.72,86.72,0,0,0-4.43,10.39,32,32,0,0,0-1.79,11.49c-.88-1.05-.79-3-.59-4.62a77.85,77.85,0,0,1,8.89-27.89l-.35,3.76c1.23-.84,1.87-2.71,2.55-4.36,1.13-2.74,2.93-5.41,5.16-5.63"/><path class="cls-1" d="M198.06,207.53a16,16,0,0,0-4.33,5.61c-.64,1.35-1.33,3-2.47,3.23-.28,0-.56,0-.84.08a1.86,1.86,0,0,0-1.19,1.22,4.86,4.86,0,0,1,2.27,3.73,2.51,2.51,0,0,0,.35,1.29,1.2,1.2,0,0,0,.85.3,3.89,3.89,0,0,1,2.92,3.24c-1.09-6,.33-12.61,2.17-18.56"/><path class="cls-1" d="M211.57,158.69c-4.26,2.79-6.15,8.05-7.09,13.05S203.23,182,201,186.54c-1.54,3.13-3.92,5.76-5.92,8.62s-3.66,6.2-3.46,9.68c0-2.53,1.58-4.79,3.39-6.57s3.9-3.27,5.43-5.29c2.81-3.7,3.33-8.58,4.23-13.14a67.23,67.23,0,0,1,8-21"/><path class="cls-1" d="M233.9,160.29c-4.37,6.91-11.9,11-18.11,16.34-5.71,4.89-10.37,10.88-15,16.83-5.4,7-11,14.63-11.27,23.45-.14,5.32,1.72,10.49,4.09,15.25,1.77,3.56,3.87,7.69,2.14,11.26,2-4.26,1.28-9.31,0-13.86s-3-9.09-2.9-13.81c.2-7.22,4.74-13.5,9.1-19.26,6-8,12.16-16.07,20-22.28,5-4,11-7.5,13.36-13.45"/><path class="cls-1" d="M243.73,161.35a7.85,7.85,0,0,1,9-1.2,33.36,33.36,0,0,1-7,3.65,3,3,0,0,1-1.65.26,1.54,1.54,0,1,1,1.09-2.85"/><path class="cls-1" d="M254.18,171.25A12.6,12.6,0,0,1,250,175.3c2.3,1,5.25-1.57,4.51-4"/><path class="cls-1" d="M252,180.06l0,7.34c0,.55.87.7,1,.13a69.57,69.57,0,0,0,1.2-8.13.53.53,0,0,0-.25-.44c-1.33-.9-2.69.51-3.05,1.74-.53,1.78,1,3.41.59,5.17l1,.13,0-3.74a.5.5,0,0,0-1,0l0,3.74a.5.5,0,0,0,1,.13,4.56,4.56,0,0,0-.1-2.23,11.88,11.88,0,0,1-.57-2.26c0-.74.71-2.46,1.67-1.81l-.25-.43a67.56,67.56,0,0,1-1.16,7.87l1,.13,0-7.34a.5.5,0,0,0-1,0Z"/><path class="cls-1" d="M207,239.4a46.07,46.07,0,0,1,2.09-45.68c-4.36,6.22-8.84,12.73-10,20.24a50.33,50.33,0,0,0-.37,8.24c0,5.47.1,11,1.56,16.29a5.78,5.78,0,0,0,2.24,3.65,3.13,3.13,0,0,0,4.51-3.81"/></svg>
